%TF.GenerationSoftware,KiCad,Pcbnew,(6.0.7)*%
%TF.CreationDate,2024-04-02T23:43:12-07:00*%
%TF.ProjectId,PCB_v1,5043425f-7631-42e6-9b69-6361645f7063,rev?*%
%TF.SameCoordinates,Original*%
%TF.FileFunction,Legend,Top*%
%TF.FilePolarity,Positive*%
%FSLAX46Y46*%
G04 Gerber Fmt 4.6, Leading zero omitted, Abs format (unit mm)*
G04 Created by KiCad (PCBNEW (6.0.7)) date 2024-04-02 23:43:12*
%MOMM*%
%LPD*%
G01*
G04 APERTURE LIST*
%ADD10C,0.150000*%
%ADD11C,0.100000*%
%ADD12C,0.200000*%
%ADD13C,0.127000*%
%ADD14C,0.120000*%
%ADD15C,0.152400*%
%ADD16C,0.300000*%
%ADD17C,0.400000*%
%ADD18C,0.508000*%
G04 APERTURE END LIST*
D10*
X144500000Y-114500000D02*
X144404761Y-114452380D01*
X144261904Y-114452380D01*
X144119047Y-114500000D01*
X144023809Y-114595238D01*
X143976190Y-114690476D01*
X143928571Y-114880952D01*
X143928571Y-115023809D01*
X143976190Y-115214285D01*
X144023809Y-115309523D01*
X144119047Y-115404761D01*
X144261904Y-115452380D01*
X144357142Y-115452380D01*
X144500000Y-115404761D01*
X144547619Y-115357142D01*
X144547619Y-115023809D01*
X144357142Y-115023809D01*
X144976190Y-115452380D02*
X144976190Y-114785714D01*
X144976190Y-114976190D02*
X145023809Y-114880952D01*
X145071428Y-114833333D01*
X145166666Y-114785714D01*
X145261904Y-114785714D01*
X145738095Y-115452380D02*
X145642857Y-115404761D01*
X145595238Y-115357142D01*
X145547619Y-115261904D01*
X145547619Y-114976190D01*
X145595238Y-114880952D01*
X145642857Y-114833333D01*
X145738095Y-114785714D01*
X145880952Y-114785714D01*
X145976190Y-114833333D01*
X146023809Y-114880952D01*
X146071428Y-114976190D01*
X146071428Y-115261904D01*
X146023809Y-115357142D01*
X145976190Y-115404761D01*
X145880952Y-115452380D01*
X145738095Y-115452380D01*
X146928571Y-114785714D02*
X146928571Y-115452380D01*
X146500000Y-114785714D02*
X146500000Y-115309523D01*
X146547619Y-115404761D01*
X146642857Y-115452380D01*
X146785714Y-115452380D01*
X146880952Y-115404761D01*
X146928571Y-115357142D01*
X147404761Y-114785714D02*
X147404761Y-115785714D01*
X147404761Y-114833333D02*
X147500000Y-114785714D01*
X147690476Y-114785714D01*
X147785714Y-114833333D01*
X147833333Y-114880952D01*
X147880952Y-114976190D01*
X147880952Y-115261904D01*
X147833333Y-115357142D01*
X147785714Y-115404761D01*
X147690476Y-115452380D01*
X147500000Y-115452380D01*
X147404761Y-115404761D01*
X148309523Y-115357142D02*
X148357142Y-115404761D01*
X148309523Y-115452380D01*
X148261904Y-115404761D01*
X148309523Y-115357142D01*
X148309523Y-115452380D01*
X148309523Y-114833333D02*
X148357142Y-114880952D01*
X148309523Y-114928571D01*
X148261904Y-114880952D01*
X148309523Y-114833333D01*
X148309523Y-114928571D01*
X150119047Y-115357142D02*
X150071428Y-115404761D01*
X149928571Y-115452380D01*
X149833333Y-115452380D01*
X149690476Y-115404761D01*
X149595238Y-115309523D01*
X149547619Y-115214285D01*
X149500000Y-115023809D01*
X149500000Y-114880952D01*
X149547619Y-114690476D01*
X149595238Y-114595238D01*
X149690476Y-114500000D01*
X149833333Y-114452380D01*
X149928571Y-114452380D01*
X150071428Y-114500000D01*
X150119047Y-114547619D01*
X150976190Y-114785714D02*
X150976190Y-115452380D01*
X150738095Y-114404761D02*
X150500000Y-115119047D01*
X151119047Y-115119047D01*
D11*
X139690476Y-100226190D02*
X139404761Y-100226190D01*
X139547619Y-100226190D02*
X139547619Y-99726190D01*
X139500000Y-99797619D01*
X139452380Y-99845238D01*
X139404761Y-99869047D01*
X139880952Y-99773809D02*
X139904761Y-99750000D01*
X139952380Y-99726190D01*
X140071428Y-99726190D01*
X140119047Y-99750000D01*
X140142857Y-99773809D01*
X140166666Y-99821428D01*
X140166666Y-99869047D01*
X140142857Y-99940476D01*
X139857142Y-100226190D01*
X140166666Y-100226190D01*
X140309523Y-99726190D02*
X140476190Y-100226190D01*
X140642857Y-99726190D01*
X131904761Y-100226190D02*
X131904761Y-99726190D01*
X132071428Y-100083333D01*
X132238095Y-99726190D01*
X132238095Y-100226190D01*
X132404761Y-99726190D02*
X132690476Y-99726190D01*
X132547619Y-100226190D02*
X132547619Y-99726190D01*
X133119047Y-100226190D02*
X132833333Y-100226190D01*
X132976190Y-100226190D02*
X132976190Y-99726190D01*
X132928571Y-99797619D01*
X132880952Y-99845238D01*
X132833333Y-99869047D01*
X134404761Y-100226190D02*
X134404761Y-99726190D01*
X134571428Y-100083333D01*
X134738095Y-99726190D01*
X134738095Y-100226190D01*
X134904761Y-99726190D02*
X135190476Y-99726190D01*
X135047619Y-100226190D02*
X135047619Y-99726190D01*
X135333333Y-99773809D02*
X135357142Y-99750000D01*
X135404761Y-99726190D01*
X135523809Y-99726190D01*
X135571428Y-99750000D01*
X135595238Y-99773809D01*
X135619047Y-99821428D01*
X135619047Y-99869047D01*
X135595238Y-99940476D01*
X135309523Y-100226190D01*
X135619047Y-100226190D01*
X143892857Y-99964285D02*
X144059523Y-99964285D01*
X144130952Y-100226190D02*
X143892857Y-100226190D01*
X143892857Y-99726190D01*
X144130952Y-99726190D01*
X144345238Y-100226190D02*
X144345238Y-99726190D01*
X144630952Y-100226190D01*
X144630952Y-99726190D01*
X145154761Y-100178571D02*
X145130952Y-100202380D01*
X145059523Y-100226190D01*
X145011904Y-100226190D01*
X144940476Y-100202380D01*
X144892857Y-100154761D01*
X144869047Y-100107142D01*
X144845238Y-100011904D01*
X144845238Y-99940476D01*
X144869047Y-99845238D01*
X144892857Y-99797619D01*
X144940476Y-99750000D01*
X145011904Y-99726190D01*
X145059523Y-99726190D01*
X145130952Y-99750000D01*
X145154761Y-99773809D01*
X145535714Y-99964285D02*
X145607142Y-99988095D01*
X145630952Y-100011904D01*
X145654761Y-100059523D01*
X145654761Y-100130952D01*
X145630952Y-100178571D01*
X145607142Y-100202380D01*
X145559523Y-100226190D01*
X145369047Y-100226190D01*
X145369047Y-99726190D01*
X145535714Y-99726190D01*
X145583333Y-99750000D01*
X145607142Y-99773809D01*
X145630952Y-99821428D01*
X145630952Y-99869047D01*
X145607142Y-99916666D01*
X145583333Y-99940476D01*
X145535714Y-99964285D01*
X145369047Y-99964285D01*
X145845238Y-99773809D02*
X145869047Y-99750000D01*
X145916666Y-99726190D01*
X146035714Y-99726190D01*
X146083333Y-99750000D01*
X146107142Y-99773809D01*
X146130952Y-99821428D01*
X146130952Y-99869047D01*
X146107142Y-99940476D01*
X145821428Y-100226190D01*
X146130952Y-100226190D01*
X137119047Y-99750000D02*
X137071428Y-99726190D01*
X137000000Y-99726190D01*
X136928571Y-99750000D01*
X136880952Y-99797619D01*
X136857142Y-99845238D01*
X136833333Y-99940476D01*
X136833333Y-100011904D01*
X136857142Y-100107142D01*
X136880952Y-100154761D01*
X136928571Y-100202380D01*
X137000000Y-100226190D01*
X137047619Y-100226190D01*
X137119047Y-100202380D01*
X137142857Y-100178571D01*
X137142857Y-100011904D01*
X137047619Y-100011904D01*
X137357142Y-100226190D02*
X137357142Y-99726190D01*
X137642857Y-100226190D01*
X137642857Y-99726190D01*
X137880952Y-100226190D02*
X137880952Y-99726190D01*
X138000000Y-99726190D01*
X138071428Y-99750000D01*
X138119047Y-99797619D01*
X138142857Y-99845238D01*
X138166666Y-99940476D01*
X138166666Y-100011904D01*
X138142857Y-100107142D01*
X138119047Y-100154761D01*
X138071428Y-100202380D01*
X138000000Y-100226190D01*
X137880952Y-100226190D01*
X141428571Y-99964285D02*
X141595238Y-99964285D01*
X141666666Y-100226190D02*
X141428571Y-100226190D01*
X141428571Y-99726190D01*
X141666666Y-99726190D01*
X141880952Y-100226190D02*
X141880952Y-99726190D01*
X142166666Y-100226190D01*
X142166666Y-99726190D01*
X142690476Y-100178571D02*
X142666666Y-100202380D01*
X142595238Y-100226190D01*
X142547619Y-100226190D01*
X142476190Y-100202380D01*
X142428571Y-100154761D01*
X142404761Y-100107142D01*
X142380952Y-100011904D01*
X142380952Y-99940476D01*
X142404761Y-99845238D01*
X142428571Y-99797619D01*
X142476190Y-99750000D01*
X142547619Y-99726190D01*
X142595238Y-99726190D01*
X142666666Y-99750000D01*
X142690476Y-99773809D01*
X142880952Y-100083333D02*
X143119047Y-100083333D01*
X142833333Y-100226190D02*
X143000000Y-99726190D01*
X143166666Y-100226190D01*
X143309523Y-99773809D02*
X143333333Y-99750000D01*
X143380952Y-99726190D01*
X143500000Y-99726190D01*
X143547619Y-99750000D01*
X143571428Y-99773809D01*
X143595238Y-99821428D01*
X143595238Y-99869047D01*
X143571428Y-99940476D01*
X143285714Y-100226190D01*
X143595238Y-100226190D01*
X143892857Y-89964285D02*
X144059523Y-89964285D01*
X144130952Y-90226190D02*
X143892857Y-90226190D01*
X143892857Y-89726190D01*
X144130952Y-89726190D01*
X144345238Y-90226190D02*
X144345238Y-89726190D01*
X144630952Y-90226190D01*
X144630952Y-89726190D01*
X145154761Y-90178571D02*
X145130952Y-90202380D01*
X145059523Y-90226190D01*
X145011904Y-90226190D01*
X144940476Y-90202380D01*
X144892857Y-90154761D01*
X144869047Y-90107142D01*
X144845238Y-90011904D01*
X144845238Y-89940476D01*
X144869047Y-89845238D01*
X144892857Y-89797619D01*
X144940476Y-89750000D01*
X145011904Y-89726190D01*
X145059523Y-89726190D01*
X145130952Y-89750000D01*
X145154761Y-89773809D01*
X145535714Y-89964285D02*
X145607142Y-89988095D01*
X145630952Y-90011904D01*
X145654761Y-90059523D01*
X145654761Y-90130952D01*
X145630952Y-90178571D01*
X145607142Y-90202380D01*
X145559523Y-90226190D01*
X145369047Y-90226190D01*
X145369047Y-89726190D01*
X145535714Y-89726190D01*
X145583333Y-89750000D01*
X145607142Y-89773809D01*
X145630952Y-89821428D01*
X145630952Y-89869047D01*
X145607142Y-89916666D01*
X145583333Y-89940476D01*
X145535714Y-89964285D01*
X145369047Y-89964285D01*
X146130952Y-90226190D02*
X145845238Y-90226190D01*
X145988095Y-90226190D02*
X145988095Y-89726190D01*
X145940476Y-89797619D01*
X145892857Y-89845238D01*
X145845238Y-89869047D01*
X141428571Y-89964285D02*
X141595238Y-89964285D01*
X141666666Y-90226190D02*
X141428571Y-90226190D01*
X141428571Y-89726190D01*
X141666666Y-89726190D01*
X141880952Y-90226190D02*
X141880952Y-89726190D01*
X142166666Y-90226190D01*
X142166666Y-89726190D01*
X142690476Y-90178571D02*
X142666666Y-90202380D01*
X142595238Y-90226190D01*
X142547619Y-90226190D01*
X142476190Y-90202380D01*
X142428571Y-90154761D01*
X142404761Y-90107142D01*
X142380952Y-90011904D01*
X142380952Y-89940476D01*
X142404761Y-89845238D01*
X142428571Y-89797619D01*
X142476190Y-89750000D01*
X142547619Y-89726190D01*
X142595238Y-89726190D01*
X142666666Y-89750000D01*
X142690476Y-89773809D01*
X142880952Y-90083333D02*
X143119047Y-90083333D01*
X142833333Y-90226190D02*
X143000000Y-89726190D01*
X143166666Y-90226190D01*
X143595238Y-90226190D02*
X143309523Y-90226190D01*
X143452380Y-90226190D02*
X143452380Y-89726190D01*
X143404761Y-89797619D01*
X143357142Y-89845238D01*
X143309523Y-89869047D01*
X139690476Y-90226190D02*
X139404761Y-90226190D01*
X139547619Y-90226190D02*
X139547619Y-89726190D01*
X139500000Y-89797619D01*
X139452380Y-89845238D01*
X139404761Y-89869047D01*
X139880952Y-89773809D02*
X139904761Y-89750000D01*
X139952380Y-89726190D01*
X140071428Y-89726190D01*
X140119047Y-89750000D01*
X140142857Y-89773809D01*
X140166666Y-89821428D01*
X140166666Y-89869047D01*
X140142857Y-89940476D01*
X139857142Y-90226190D01*
X140166666Y-90226190D01*
X140309523Y-89726190D02*
X140476190Y-90226190D01*
X140642857Y-89726190D01*
X137119047Y-89750000D02*
X137071428Y-89726190D01*
X137000000Y-89726190D01*
X136928571Y-89750000D01*
X136880952Y-89797619D01*
X136857142Y-89845238D01*
X136833333Y-89940476D01*
X136833333Y-90011904D01*
X136857142Y-90107142D01*
X136880952Y-90154761D01*
X136928571Y-90202380D01*
X137000000Y-90226190D01*
X137047619Y-90226190D01*
X137119047Y-90202380D01*
X137142857Y-90178571D01*
X137142857Y-90011904D01*
X137047619Y-90011904D01*
X137357142Y-90226190D02*
X137357142Y-89726190D01*
X137642857Y-90226190D01*
X137642857Y-89726190D01*
X137880952Y-90226190D02*
X137880952Y-89726190D01*
X138000000Y-89726190D01*
X138071428Y-89750000D01*
X138119047Y-89797619D01*
X138142857Y-89845238D01*
X138166666Y-89940476D01*
X138166666Y-90011904D01*
X138142857Y-90107142D01*
X138119047Y-90154761D01*
X138071428Y-90202380D01*
X138000000Y-90226190D01*
X137880952Y-90226190D01*
X134404761Y-90226190D02*
X134404761Y-89726190D01*
X134571428Y-90083333D01*
X134738095Y-89726190D01*
X134738095Y-90226190D01*
X134904761Y-89726190D02*
X135190476Y-89726190D01*
X135047619Y-90226190D02*
X135047619Y-89726190D01*
X135333333Y-89773809D02*
X135357142Y-89750000D01*
X135404761Y-89726190D01*
X135523809Y-89726190D01*
X135571428Y-89750000D01*
X135595238Y-89773809D01*
X135619047Y-89821428D01*
X135619047Y-89869047D01*
X135595238Y-89940476D01*
X135309523Y-90226190D01*
X135619047Y-90226190D01*
X131904761Y-90226190D02*
X131904761Y-89726190D01*
X132071428Y-90083333D01*
X132238095Y-89726190D01*
X132238095Y-90226190D01*
X132404761Y-89726190D02*
X132690476Y-89726190D01*
X132547619Y-90226190D02*
X132547619Y-89726190D01*
X133119047Y-90226190D02*
X132833333Y-90226190D01*
X132976190Y-90226190D02*
X132976190Y-89726190D01*
X132928571Y-89797619D01*
X132880952Y-89845238D01*
X132833333Y-89869047D01*
D10*
X121952380Y-31293333D02*
X122952380Y-30960000D01*
X121952380Y-30626666D01*
X122857142Y-29721904D02*
X122904761Y-29769523D01*
X122952380Y-29912380D01*
X122952380Y-30007619D01*
X122904761Y-30150476D01*
X122809523Y-30245714D01*
X122714285Y-30293333D01*
X122523809Y-30340952D01*
X122380952Y-30340952D01*
X122190476Y-30293333D01*
X122095238Y-30245714D01*
X122000000Y-30150476D01*
X121952380Y-30007619D01*
X121952380Y-29912380D01*
X122000000Y-29769523D01*
X122047619Y-29721904D01*
X122857142Y-28721904D02*
X122904761Y-28769523D01*
X122952380Y-28912380D01*
X122952380Y-29007619D01*
X122904761Y-29150476D01*
X122809523Y-29245714D01*
X122714285Y-29293333D01*
X122523809Y-29340952D01*
X122380952Y-29340952D01*
X122190476Y-29293333D01*
X122095238Y-29245714D01*
X122000000Y-29150476D01*
X121952380Y-29007619D01*
X121952380Y-28912380D01*
X122000000Y-28769523D01*
X122047619Y-28721904D01*
%TO.C,U1*%
X185087380Y-29936904D02*
X185896904Y-29936904D01*
X185992142Y-29889285D01*
X186039761Y-29841666D01*
X186087380Y-29746428D01*
X186087380Y-29555952D01*
X186039761Y-29460714D01*
X185992142Y-29413095D01*
X185896904Y-29365476D01*
X185087380Y-29365476D01*
X186087380Y-28365476D02*
X186087380Y-28936904D01*
X186087380Y-28651190D02*
X185087380Y-28651190D01*
X185230238Y-28746428D01*
X185325476Y-28841666D01*
X185373095Y-28936904D01*
%TO.C,U2*%
X185207380Y-77676904D02*
X186016904Y-77676904D01*
X186112142Y-77629285D01*
X186159761Y-77581666D01*
X186207380Y-77486428D01*
X186207380Y-77295952D01*
X186159761Y-77200714D01*
X186112142Y-77153095D01*
X186016904Y-77105476D01*
X185207380Y-77105476D01*
X185302619Y-76676904D02*
X185255000Y-76629285D01*
X185207380Y-76534047D01*
X185207380Y-76295952D01*
X185255000Y-76200714D01*
X185302619Y-76153095D01*
X185397857Y-76105476D01*
X185493095Y-76105476D01*
X185635952Y-76153095D01*
X186207380Y-76724523D01*
X186207380Y-76105476D01*
%TO.C,Laser*%
X126214285Y-32952380D02*
X125738095Y-32952380D01*
X125738095Y-31952380D01*
X126976190Y-32952380D02*
X126976190Y-32428571D01*
X126928571Y-32333333D01*
X126833333Y-32285714D01*
X126642857Y-32285714D01*
X126547619Y-32333333D01*
X126976190Y-32904761D02*
X126880952Y-32952380D01*
X126642857Y-32952380D01*
X126547619Y-32904761D01*
X126500000Y-32809523D01*
X126500000Y-32714285D01*
X126547619Y-32619047D01*
X126642857Y-32571428D01*
X126880952Y-32571428D01*
X126976190Y-32523809D01*
X127404761Y-32904761D02*
X127500000Y-32952380D01*
X127690476Y-32952380D01*
X127785714Y-32904761D01*
X127833333Y-32809523D01*
X127833333Y-32761904D01*
X127785714Y-32666666D01*
X127690476Y-32619047D01*
X127547619Y-32619047D01*
X127452380Y-32571428D01*
X127404761Y-32476190D01*
X127404761Y-32428571D01*
X127452380Y-32333333D01*
X127547619Y-32285714D01*
X127690476Y-32285714D01*
X127785714Y-32333333D01*
X128642857Y-32904761D02*
X128547619Y-32952380D01*
X128357142Y-32952380D01*
X128261904Y-32904761D01*
X128214285Y-32809523D01*
X128214285Y-32428571D01*
X128261904Y-32333333D01*
X128357142Y-32285714D01*
X128547619Y-32285714D01*
X128642857Y-32333333D01*
X128690476Y-32428571D01*
X128690476Y-32523809D01*
X128214285Y-32619047D01*
X129119047Y-32952380D02*
X129119047Y-32285714D01*
X129119047Y-32476190D02*
X129166666Y-32380952D01*
X129214285Y-32333333D01*
X129309523Y-32285714D01*
X129404761Y-32285714D01*
%TO.C,U4*%
X138805283Y-65430751D02*
X138805283Y-66243985D01*
X138853120Y-66339659D01*
X138900958Y-66387496D01*
X138996632Y-66435334D01*
X139187981Y-66435334D01*
X139283656Y-66387496D01*
X139331493Y-66339659D01*
X139379330Y-66243985D01*
X139379330Y-65430751D01*
X140288239Y-65765612D02*
X140288239Y-66435334D01*
X140049052Y-65382913D02*
X139809866Y-66100473D01*
X140431751Y-66100473D01*
%TO.C,U3*%
X138805283Y-42930751D02*
X138805283Y-43743985D01*
X138853120Y-43839659D01*
X138900958Y-43887496D01*
X138996632Y-43935334D01*
X139187981Y-43935334D01*
X139283656Y-43887496D01*
X139331493Y-43839659D01*
X139379330Y-43743985D01*
X139379330Y-42930751D01*
X139762029Y-42930751D02*
X140383913Y-42930751D01*
X140049052Y-43313449D01*
X140192564Y-43313449D01*
X140288239Y-43361286D01*
X140336076Y-43409124D01*
X140383913Y-43504798D01*
X140383913Y-43743985D01*
X140336076Y-43839659D01*
X140288239Y-43887496D01*
X140192564Y-43935334D01*
X139905541Y-43935334D01*
X139809866Y-43887496D01*
X139762029Y-43839659D01*
%TO.C,2R*%
X46714285Y-109717619D02*
X46761904Y-109670000D01*
X46857142Y-109622380D01*
X47095238Y-109622380D01*
X47190476Y-109670000D01*
X47238095Y-109717619D01*
X47285714Y-109812857D01*
X47285714Y-109908095D01*
X47238095Y-110050952D01*
X46666666Y-110622380D01*
X47285714Y-110622380D01*
X48285714Y-110622380D02*
X47952380Y-110146190D01*
X47714285Y-110622380D02*
X47714285Y-109622380D01*
X48095238Y-109622380D01*
X48190476Y-109670000D01*
X48238095Y-109717619D01*
X48285714Y-109812857D01*
X48285714Y-109955714D01*
X48238095Y-110050952D01*
X48190476Y-110098571D01*
X48095238Y-110146190D01*
X47714285Y-110146190D01*
%TO.C,1R*%
X114785714Y-78122380D02*
X114214285Y-78122380D01*
X114500000Y-78122380D02*
X114500000Y-77122380D01*
X114404761Y-77265238D01*
X114309523Y-77360476D01*
X114214285Y-77408095D01*
X115785714Y-78122380D02*
X115452380Y-77646190D01*
X115214285Y-78122380D02*
X115214285Y-77122380D01*
X115595238Y-77122380D01*
X115690476Y-77170000D01*
X115738095Y-77217619D01*
X115785714Y-77312857D01*
X115785714Y-77455714D01*
X115738095Y-77550952D01*
X115690476Y-77598571D01*
X115595238Y-77646190D01*
X115214285Y-77646190D01*
%TO.C,1L*%
X64880952Y-78122380D02*
X64309523Y-78122380D01*
X64595238Y-78122380D02*
X64595238Y-77122380D01*
X64500000Y-77265238D01*
X64404761Y-77360476D01*
X64309523Y-77408095D01*
X65785714Y-78122380D02*
X65309523Y-78122380D01*
X65309523Y-77122380D01*
%TO.C,2L*%
X41809523Y-109717619D02*
X41857142Y-109670000D01*
X41952380Y-109622380D01*
X42190476Y-109622380D01*
X42285714Y-109670000D01*
X42333333Y-109717619D01*
X42380952Y-109812857D01*
X42380952Y-109908095D01*
X42333333Y-110050952D01*
X41761904Y-110622380D01*
X42380952Y-110622380D01*
X43285714Y-110622380D02*
X42809523Y-110622380D01*
X42809523Y-109622380D01*
%TO.C,GND*%
X36738095Y-104670000D02*
X36642857Y-104622380D01*
X36500000Y-104622380D01*
X36357142Y-104670000D01*
X36261904Y-104765238D01*
X36214285Y-104860476D01*
X36166666Y-105050952D01*
X36166666Y-105193809D01*
X36214285Y-105384285D01*
X36261904Y-105479523D01*
X36357142Y-105574761D01*
X36500000Y-105622380D01*
X36595238Y-105622380D01*
X36738095Y-105574761D01*
X36785714Y-105527142D01*
X36785714Y-105193809D01*
X36595238Y-105193809D01*
X37214285Y-105622380D02*
X37214285Y-104622380D01*
X37785714Y-105622380D01*
X37785714Y-104622380D01*
X38261904Y-105622380D02*
X38261904Y-104622380D01*
X38500000Y-104622380D01*
X38642857Y-104670000D01*
X38738095Y-104765238D01*
X38785714Y-104860476D01*
X38833333Y-105050952D01*
X38833333Y-105193809D01*
X38785714Y-105384285D01*
X38738095Y-105479523D01*
X38642857Y-105574761D01*
X38500000Y-105622380D01*
X38261904Y-105622380D01*
%TO.C,PS*%
X36761904Y-110622380D02*
X36761904Y-109622380D01*
X37142857Y-109622380D01*
X37238095Y-109670000D01*
X37285714Y-109717619D01*
X37333333Y-109812857D01*
X37333333Y-109955714D01*
X37285714Y-110050952D01*
X37238095Y-110098571D01*
X37142857Y-110146190D01*
X36761904Y-110146190D01*
X37714285Y-110574761D02*
X37857142Y-110622380D01*
X38095238Y-110622380D01*
X38190476Y-110574761D01*
X38238095Y-110527142D01*
X38285714Y-110431904D01*
X38285714Y-110336666D01*
X38238095Y-110241428D01*
X38190476Y-110193809D01*
X38095238Y-110146190D01*
X37904761Y-110098571D01*
X37809523Y-110050952D01*
X37761904Y-110003333D01*
X37714285Y-109908095D01*
X37714285Y-109812857D01*
X37761904Y-109717619D01*
X37809523Y-109670000D01*
X37904761Y-109622380D01*
X38142857Y-109622380D01*
X38285714Y-109670000D01*
%TO.C,SW2*%
X88709166Y-27122261D02*
X88852023Y-27169880D01*
X89090119Y-27169880D01*
X89185357Y-27122261D01*
X89232976Y-27074642D01*
X89280595Y-26979404D01*
X89280595Y-26884166D01*
X89232976Y-26788928D01*
X89185357Y-26741309D01*
X89090119Y-26693690D01*
X88899642Y-26646071D01*
X88804404Y-26598452D01*
X88756785Y-26550833D01*
X88709166Y-26455595D01*
X88709166Y-26360357D01*
X88756785Y-26265119D01*
X88804404Y-26217500D01*
X88899642Y-26169880D01*
X89137738Y-26169880D01*
X89280595Y-26217500D01*
X89613928Y-26169880D02*
X89852023Y-27169880D01*
X90042500Y-26455595D01*
X90232976Y-27169880D01*
X90471071Y-26169880D01*
X90804404Y-26265119D02*
X90852023Y-26217500D01*
X90947261Y-26169880D01*
X91185357Y-26169880D01*
X91280595Y-26217500D01*
X91328214Y-26265119D01*
X91375833Y-26360357D01*
X91375833Y-26455595D01*
X91328214Y-26598452D01*
X90756785Y-27169880D01*
X91375833Y-27169880D01*
%TO.C,SW1*%
X106209166Y-27122261D02*
X106352023Y-27169880D01*
X106590119Y-27169880D01*
X106685357Y-27122261D01*
X106732976Y-27074642D01*
X106780595Y-26979404D01*
X106780595Y-26884166D01*
X106732976Y-26788928D01*
X106685357Y-26741309D01*
X106590119Y-26693690D01*
X106399642Y-26646071D01*
X106304404Y-26598452D01*
X106256785Y-26550833D01*
X106209166Y-26455595D01*
X106209166Y-26360357D01*
X106256785Y-26265119D01*
X106304404Y-26217500D01*
X106399642Y-26169880D01*
X106637738Y-26169880D01*
X106780595Y-26217500D01*
X107113928Y-26169880D02*
X107352023Y-27169880D01*
X107542500Y-26455595D01*
X107732976Y-27169880D01*
X107971071Y-26169880D01*
X108875833Y-27169880D02*
X108304404Y-27169880D01*
X108590119Y-27169880D02*
X108590119Y-26169880D01*
X108494880Y-26312738D01*
X108399642Y-26407976D01*
X108304404Y-26455595D01*
%TO.C,R27*%
X146857142Y-32822380D02*
X146523809Y-32346190D01*
X146285714Y-32822380D02*
X146285714Y-31822380D01*
X146666666Y-31822380D01*
X146761904Y-31870000D01*
X146809523Y-31917619D01*
X146857142Y-32012857D01*
X146857142Y-32155714D01*
X146809523Y-32250952D01*
X146761904Y-32298571D01*
X146666666Y-32346190D01*
X146285714Y-32346190D01*
X147238095Y-31917619D02*
X147285714Y-31870000D01*
X147380952Y-31822380D01*
X147619047Y-31822380D01*
X147714285Y-31870000D01*
X147761904Y-31917619D01*
X147809523Y-32012857D01*
X147809523Y-32108095D01*
X147761904Y-32250952D01*
X147190476Y-32822380D01*
X147809523Y-32822380D01*
X148142857Y-31822380D02*
X148809523Y-31822380D01*
X148380952Y-32822380D01*
%TO.C,R26*%
X148082380Y-75642857D02*
X147606190Y-75976190D01*
X148082380Y-76214285D02*
X147082380Y-76214285D01*
X147082380Y-75833333D01*
X147130000Y-75738095D01*
X147177619Y-75690476D01*
X147272857Y-75642857D01*
X147415714Y-75642857D01*
X147510952Y-75690476D01*
X147558571Y-75738095D01*
X147606190Y-75833333D01*
X147606190Y-76214285D01*
X147177619Y-75261904D02*
X147130000Y-75214285D01*
X147082380Y-75119047D01*
X147082380Y-74880952D01*
X147130000Y-74785714D01*
X147177619Y-74738095D01*
X147272857Y-74690476D01*
X147368095Y-74690476D01*
X147510952Y-74738095D01*
X148082380Y-75309523D01*
X148082380Y-74690476D01*
X147082380Y-73833333D02*
X147082380Y-74023809D01*
X147130000Y-74119047D01*
X147177619Y-74166666D01*
X147320476Y-74261904D01*
X147510952Y-74309523D01*
X147891904Y-74309523D01*
X147987142Y-74261904D01*
X148034761Y-74214285D01*
X148082380Y-74119047D01*
X148082380Y-73928571D01*
X148034761Y-73833333D01*
X147987142Y-73785714D01*
X147891904Y-73738095D01*
X147653809Y-73738095D01*
X147558571Y-73785714D01*
X147510952Y-73833333D01*
X147463333Y-73928571D01*
X147463333Y-74119047D01*
X147510952Y-74214285D01*
X147558571Y-74261904D01*
X147653809Y-74309523D01*
%TO.C,R25*%
X148082380Y-50642857D02*
X147606190Y-50976190D01*
X148082380Y-51214285D02*
X147082380Y-51214285D01*
X147082380Y-50833333D01*
X147130000Y-50738095D01*
X147177619Y-50690476D01*
X147272857Y-50642857D01*
X147415714Y-50642857D01*
X147510952Y-50690476D01*
X147558571Y-50738095D01*
X147606190Y-50833333D01*
X147606190Y-51214285D01*
X147177619Y-50261904D02*
X147130000Y-50214285D01*
X147082380Y-50119047D01*
X147082380Y-49880952D01*
X147130000Y-49785714D01*
X147177619Y-49738095D01*
X147272857Y-49690476D01*
X147368095Y-49690476D01*
X147510952Y-49738095D01*
X148082380Y-50309523D01*
X148082380Y-49690476D01*
X147082380Y-48785714D02*
X147082380Y-49261904D01*
X147558571Y-49309523D01*
X147510952Y-49261904D01*
X147463333Y-49166666D01*
X147463333Y-48928571D01*
X147510952Y-48833333D01*
X147558571Y-48785714D01*
X147653809Y-48738095D01*
X147891904Y-48738095D01*
X147987142Y-48785714D01*
X148034761Y-48833333D01*
X148082380Y-48928571D01*
X148082380Y-49166666D01*
X148034761Y-49261904D01*
X147987142Y-49309523D01*
%TO.C,R24*%
X146857142Y-60452380D02*
X146523809Y-59976190D01*
X146285714Y-60452380D02*
X146285714Y-59452380D01*
X146666666Y-59452380D01*
X146761904Y-59500000D01*
X146809523Y-59547619D01*
X146857142Y-59642857D01*
X146857142Y-59785714D01*
X146809523Y-59880952D01*
X146761904Y-59928571D01*
X146666666Y-59976190D01*
X146285714Y-59976190D01*
X147238095Y-59547619D02*
X147285714Y-59500000D01*
X147380952Y-59452380D01*
X147619047Y-59452380D01*
X147714285Y-59500000D01*
X147761904Y-59547619D01*
X147809523Y-59642857D01*
X147809523Y-59738095D01*
X147761904Y-59880952D01*
X147190476Y-60452380D01*
X147809523Y-60452380D01*
X148666666Y-59785714D02*
X148666666Y-60452380D01*
X148428571Y-59404761D02*
X148190476Y-60119047D01*
X148809523Y-60119047D01*
%TO.C,R23*%
X146857142Y-38082380D02*
X146523809Y-37606190D01*
X146285714Y-38082380D02*
X146285714Y-37082380D01*
X146666666Y-37082380D01*
X146761904Y-37130000D01*
X146809523Y-37177619D01*
X146857142Y-37272857D01*
X146857142Y-37415714D01*
X146809523Y-37510952D01*
X146761904Y-37558571D01*
X146666666Y-37606190D01*
X146285714Y-37606190D01*
X147238095Y-37177619D02*
X147285714Y-37130000D01*
X147380952Y-37082380D01*
X147619047Y-37082380D01*
X147714285Y-37130000D01*
X147761904Y-37177619D01*
X147809523Y-37272857D01*
X147809523Y-37368095D01*
X147761904Y-37510952D01*
X147190476Y-38082380D01*
X147809523Y-38082380D01*
X148142857Y-37082380D02*
X148761904Y-37082380D01*
X148428571Y-37463333D01*
X148571428Y-37463333D01*
X148666666Y-37510952D01*
X148714285Y-37558571D01*
X148761904Y-37653809D01*
X148761904Y-37891904D01*
X148714285Y-37987142D01*
X148666666Y-38034761D01*
X148571428Y-38082380D01*
X148285714Y-38082380D01*
X148190476Y-38034761D01*
X148142857Y-37987142D01*
%TO.C,R22*%
X131857142Y-60582380D02*
X131523809Y-60106190D01*
X131285714Y-60582380D02*
X131285714Y-59582380D01*
X131666666Y-59582380D01*
X131761904Y-59630000D01*
X131809523Y-59677619D01*
X131857142Y-59772857D01*
X131857142Y-59915714D01*
X131809523Y-60010952D01*
X131761904Y-60058571D01*
X131666666Y-60106190D01*
X131285714Y-60106190D01*
X132238095Y-59677619D02*
X132285714Y-59630000D01*
X132380952Y-59582380D01*
X132619047Y-59582380D01*
X132714285Y-59630000D01*
X132761904Y-59677619D01*
X132809523Y-59772857D01*
X132809523Y-59868095D01*
X132761904Y-60010952D01*
X132190476Y-60582380D01*
X132809523Y-60582380D01*
X133190476Y-59677619D02*
X133238095Y-59630000D01*
X133333333Y-59582380D01*
X133571428Y-59582380D01*
X133666666Y-59630000D01*
X133714285Y-59677619D01*
X133761904Y-59772857D01*
X133761904Y-59868095D01*
X133714285Y-60010952D01*
X133142857Y-60582380D01*
X133761904Y-60582380D01*
%TO.C,R21*%
X131857142Y-38082380D02*
X131523809Y-37606190D01*
X131285714Y-38082380D02*
X131285714Y-37082380D01*
X131666666Y-37082380D01*
X131761904Y-37130000D01*
X131809523Y-37177619D01*
X131857142Y-37272857D01*
X131857142Y-37415714D01*
X131809523Y-37510952D01*
X131761904Y-37558571D01*
X131666666Y-37606190D01*
X131285714Y-37606190D01*
X132238095Y-37177619D02*
X132285714Y-37130000D01*
X132380952Y-37082380D01*
X132619047Y-37082380D01*
X132714285Y-37130000D01*
X132761904Y-37177619D01*
X132809523Y-37272857D01*
X132809523Y-37368095D01*
X132761904Y-37510952D01*
X132190476Y-38082380D01*
X132809523Y-38082380D01*
X133761904Y-38082380D02*
X133190476Y-38082380D01*
X133476190Y-38082380D02*
X133476190Y-37082380D01*
X133380952Y-37225238D01*
X133285714Y-37320476D01*
X133190476Y-37368095D01*
%TO.C,R20*%
X128082380Y-75642857D02*
X127606190Y-75976190D01*
X128082380Y-76214285D02*
X127082380Y-76214285D01*
X127082380Y-75833333D01*
X127130000Y-75738095D01*
X127177619Y-75690476D01*
X127272857Y-75642857D01*
X127415714Y-75642857D01*
X127510952Y-75690476D01*
X127558571Y-75738095D01*
X127606190Y-75833333D01*
X127606190Y-76214285D01*
X127177619Y-75261904D02*
X127130000Y-75214285D01*
X127082380Y-75119047D01*
X127082380Y-74880952D01*
X127130000Y-74785714D01*
X127177619Y-74738095D01*
X127272857Y-74690476D01*
X127368095Y-74690476D01*
X127510952Y-74738095D01*
X128082380Y-75309523D01*
X128082380Y-74690476D01*
X127082380Y-74071428D02*
X127082380Y-73976190D01*
X127130000Y-73880952D01*
X127177619Y-73833333D01*
X127272857Y-73785714D01*
X127463333Y-73738095D01*
X127701428Y-73738095D01*
X127891904Y-73785714D01*
X127987142Y-73833333D01*
X128034761Y-73880952D01*
X128082380Y-73976190D01*
X128082380Y-74071428D01*
X128034761Y-74166666D01*
X127987142Y-74214285D01*
X127891904Y-74261904D01*
X127701428Y-74309523D01*
X127463333Y-74309523D01*
X127272857Y-74261904D01*
X127177619Y-74214285D01*
X127130000Y-74166666D01*
X127082380Y-74071428D01*
%TO.C,R19*%
X128082380Y-50642857D02*
X127606190Y-50976190D01*
X128082380Y-51214285D02*
X127082380Y-51214285D01*
X127082380Y-50833333D01*
X127130000Y-50738095D01*
X127177619Y-50690476D01*
X127272857Y-50642857D01*
X127415714Y-50642857D01*
X127510952Y-50690476D01*
X127558571Y-50738095D01*
X127606190Y-50833333D01*
X127606190Y-51214285D01*
X128082380Y-49690476D02*
X128082380Y-50261904D01*
X128082380Y-49976190D02*
X127082380Y-49976190D01*
X127225238Y-50071428D01*
X127320476Y-50166666D01*
X127368095Y-50261904D01*
X128082380Y-49214285D02*
X128082380Y-49023809D01*
X128034761Y-48928571D01*
X127987142Y-48880952D01*
X127844285Y-48785714D01*
X127653809Y-48738095D01*
X127272857Y-48738095D01*
X127177619Y-48785714D01*
X127130000Y-48833333D01*
X127082380Y-48928571D01*
X127082380Y-49119047D01*
X127130000Y-49214285D01*
X127177619Y-49261904D01*
X127272857Y-49309523D01*
X127510952Y-49309523D01*
X127606190Y-49261904D01*
X127653809Y-49214285D01*
X127701428Y-49119047D01*
X127701428Y-48928571D01*
X127653809Y-48833333D01*
X127606190Y-48785714D01*
X127510952Y-48738095D01*
%TO.C,R18*%
X41857142Y-90452380D02*
X41523809Y-89976190D01*
X41285714Y-90452380D02*
X41285714Y-89452380D01*
X41666666Y-89452380D01*
X41761904Y-89500000D01*
X41809523Y-89547619D01*
X41857142Y-89642857D01*
X41857142Y-89785714D01*
X41809523Y-89880952D01*
X41761904Y-89928571D01*
X41666666Y-89976190D01*
X41285714Y-89976190D01*
X42809523Y-90452380D02*
X42238095Y-90452380D01*
X42523809Y-90452380D02*
X42523809Y-89452380D01*
X42428571Y-89595238D01*
X42333333Y-89690476D01*
X42238095Y-89738095D01*
X43380952Y-89880952D02*
X43285714Y-89833333D01*
X43238095Y-89785714D01*
X43190476Y-89690476D01*
X43190476Y-89642857D01*
X43238095Y-89547619D01*
X43285714Y-89500000D01*
X43380952Y-89452380D01*
X43571428Y-89452380D01*
X43666666Y-89500000D01*
X43714285Y-89547619D01*
X43761904Y-89642857D01*
X43761904Y-89690476D01*
X43714285Y-89785714D01*
X43666666Y-89833333D01*
X43571428Y-89880952D01*
X43380952Y-89880952D01*
X43285714Y-89928571D01*
X43238095Y-89976190D01*
X43190476Y-90071428D01*
X43190476Y-90261904D01*
X43238095Y-90357142D01*
X43285714Y-90404761D01*
X43380952Y-90452380D01*
X43571428Y-90452380D01*
X43666666Y-90404761D01*
X43714285Y-90357142D01*
X43761904Y-90261904D01*
X43761904Y-90071428D01*
X43714285Y-89976190D01*
X43666666Y-89928571D01*
X43571428Y-89880952D01*
%TO.C,R17*%
X114357142Y-100582380D02*
X114023809Y-100106190D01*
X113785714Y-100582380D02*
X113785714Y-99582380D01*
X114166666Y-99582380D01*
X114261904Y-99630000D01*
X114309523Y-99677619D01*
X114357142Y-99772857D01*
X114357142Y-99915714D01*
X114309523Y-100010952D01*
X114261904Y-100058571D01*
X114166666Y-100106190D01*
X113785714Y-100106190D01*
X115309523Y-100582380D02*
X114738095Y-100582380D01*
X115023809Y-100582380D02*
X115023809Y-99582380D01*
X114928571Y-99725238D01*
X114833333Y-99820476D01*
X114738095Y-99868095D01*
X115642857Y-99582380D02*
X116309523Y-99582380D01*
X115880952Y-100582380D01*
%TO.C,R16*%
X114357142Y-90582380D02*
X114023809Y-90106190D01*
X113785714Y-90582380D02*
X113785714Y-89582380D01*
X114166666Y-89582380D01*
X114261904Y-89630000D01*
X114309523Y-89677619D01*
X114357142Y-89772857D01*
X114357142Y-89915714D01*
X114309523Y-90010952D01*
X114261904Y-90058571D01*
X114166666Y-90106190D01*
X113785714Y-90106190D01*
X115309523Y-90582380D02*
X114738095Y-90582380D01*
X115023809Y-90582380D02*
X115023809Y-89582380D01*
X114928571Y-89725238D01*
X114833333Y-89820476D01*
X114738095Y-89868095D01*
X116166666Y-89582380D02*
X115976190Y-89582380D01*
X115880952Y-89630000D01*
X115833333Y-89677619D01*
X115738095Y-89820476D01*
X115690476Y-90010952D01*
X115690476Y-90391904D01*
X115738095Y-90487142D01*
X115785714Y-90534761D01*
X115880952Y-90582380D01*
X116071428Y-90582380D01*
X116166666Y-90534761D01*
X116214285Y-90487142D01*
X116261904Y-90391904D01*
X116261904Y-90153809D01*
X116214285Y-90058571D01*
X116166666Y-90010952D01*
X116071428Y-89963333D01*
X115880952Y-89963333D01*
X115785714Y-90010952D01*
X115738095Y-90058571D01*
X115690476Y-90153809D01*
%TO.C,R15*%
X114357142Y-65582380D02*
X114023809Y-65106190D01*
X113785714Y-65582380D02*
X113785714Y-64582380D01*
X114166666Y-64582380D01*
X114261904Y-64630000D01*
X114309523Y-64677619D01*
X114357142Y-64772857D01*
X114357142Y-64915714D01*
X114309523Y-65010952D01*
X114261904Y-65058571D01*
X114166666Y-65106190D01*
X113785714Y-65106190D01*
X115309523Y-65582380D02*
X114738095Y-65582380D01*
X115023809Y-65582380D02*
X115023809Y-64582380D01*
X114928571Y-64725238D01*
X114833333Y-64820476D01*
X114738095Y-64868095D01*
X116214285Y-64582380D02*
X115738095Y-64582380D01*
X115690476Y-65058571D01*
X115738095Y-65010952D01*
X115833333Y-64963333D01*
X116071428Y-64963333D01*
X116166666Y-65010952D01*
X116214285Y-65058571D01*
X116261904Y-65153809D01*
X116261904Y-65391904D01*
X116214285Y-65487142D01*
X116166666Y-65534761D01*
X116071428Y-65582380D01*
X115833333Y-65582380D01*
X115738095Y-65534761D01*
X115690476Y-65487142D01*
%TO.C,R14*%
X114357142Y-60452380D02*
X114023809Y-59976190D01*
X113785714Y-60452380D02*
X113785714Y-59452380D01*
X114166666Y-59452380D01*
X114261904Y-59500000D01*
X114309523Y-59547619D01*
X114357142Y-59642857D01*
X114357142Y-59785714D01*
X114309523Y-59880952D01*
X114261904Y-59928571D01*
X114166666Y-59976190D01*
X113785714Y-59976190D01*
X115309523Y-60452380D02*
X114738095Y-60452380D01*
X115023809Y-60452380D02*
X115023809Y-59452380D01*
X114928571Y-59595238D01*
X114833333Y-59690476D01*
X114738095Y-59738095D01*
X116166666Y-59785714D02*
X116166666Y-60452380D01*
X115928571Y-59404761D02*
X115690476Y-60119047D01*
X116309523Y-60119047D01*
%TO.C,R13*%
X64357142Y-100582380D02*
X64023809Y-100106190D01*
X63785714Y-100582380D02*
X63785714Y-99582380D01*
X64166666Y-99582380D01*
X64261904Y-99630000D01*
X64309523Y-99677619D01*
X64357142Y-99772857D01*
X64357142Y-99915714D01*
X64309523Y-100010952D01*
X64261904Y-100058571D01*
X64166666Y-100106190D01*
X63785714Y-100106190D01*
X65309523Y-100582380D02*
X64738095Y-100582380D01*
X65023809Y-100582380D02*
X65023809Y-99582380D01*
X64928571Y-99725238D01*
X64833333Y-99820476D01*
X64738095Y-99868095D01*
X65642857Y-99582380D02*
X66261904Y-99582380D01*
X65928571Y-99963333D01*
X66071428Y-99963333D01*
X66166666Y-100010952D01*
X66214285Y-100058571D01*
X66261904Y-100153809D01*
X66261904Y-100391904D01*
X66214285Y-100487142D01*
X66166666Y-100534761D01*
X66071428Y-100582380D01*
X65785714Y-100582380D01*
X65690476Y-100534761D01*
X65642857Y-100487142D01*
%TO.C,R12*%
X64357142Y-90582380D02*
X64023809Y-90106190D01*
X63785714Y-90582380D02*
X63785714Y-89582380D01*
X64166666Y-89582380D01*
X64261904Y-89630000D01*
X64309523Y-89677619D01*
X64357142Y-89772857D01*
X64357142Y-89915714D01*
X64309523Y-90010952D01*
X64261904Y-90058571D01*
X64166666Y-90106190D01*
X63785714Y-90106190D01*
X65309523Y-90582380D02*
X64738095Y-90582380D01*
X65023809Y-90582380D02*
X65023809Y-89582380D01*
X64928571Y-89725238D01*
X64833333Y-89820476D01*
X64738095Y-89868095D01*
X65690476Y-89677619D02*
X65738095Y-89630000D01*
X65833333Y-89582380D01*
X66071428Y-89582380D01*
X66166666Y-89630000D01*
X66214285Y-89677619D01*
X66261904Y-89772857D01*
X66261904Y-89868095D01*
X66214285Y-90010952D01*
X65642857Y-90582380D01*
X66261904Y-90582380D01*
%TO.C,R11*%
X64377142Y-75322380D02*
X64043809Y-74846190D01*
X63805714Y-75322380D02*
X63805714Y-74322380D01*
X64186666Y-74322380D01*
X64281904Y-74370000D01*
X64329523Y-74417619D01*
X64377142Y-74512857D01*
X64377142Y-74655714D01*
X64329523Y-74750952D01*
X64281904Y-74798571D01*
X64186666Y-74846190D01*
X63805714Y-74846190D01*
X65329523Y-75322380D02*
X64758095Y-75322380D01*
X65043809Y-75322380D02*
X65043809Y-74322380D01*
X64948571Y-74465238D01*
X64853333Y-74560476D01*
X64758095Y-74608095D01*
X66281904Y-75322380D02*
X65710476Y-75322380D01*
X65996190Y-75322380D02*
X65996190Y-74322380D01*
X65900952Y-74465238D01*
X65805714Y-74560476D01*
X65710476Y-74608095D01*
%TO.C,R10*%
X64347142Y-60322380D02*
X64013809Y-59846190D01*
X63775714Y-60322380D02*
X63775714Y-59322380D01*
X64156666Y-59322380D01*
X64251904Y-59370000D01*
X64299523Y-59417619D01*
X64347142Y-59512857D01*
X64347142Y-59655714D01*
X64299523Y-59750952D01*
X64251904Y-59798571D01*
X64156666Y-59846190D01*
X63775714Y-59846190D01*
X65299523Y-60322380D02*
X64728095Y-60322380D01*
X65013809Y-60322380D02*
X65013809Y-59322380D01*
X64918571Y-59465238D01*
X64823333Y-59560476D01*
X64728095Y-59608095D01*
X65918571Y-59322380D02*
X66013809Y-59322380D01*
X66109047Y-59370000D01*
X66156666Y-59417619D01*
X66204285Y-59512857D01*
X66251904Y-59703333D01*
X66251904Y-59941428D01*
X66204285Y-60131904D01*
X66156666Y-60227142D01*
X66109047Y-60274761D01*
X66013809Y-60322380D01*
X65918571Y-60322380D01*
X65823333Y-60274761D01*
X65775714Y-60227142D01*
X65728095Y-60131904D01*
X65680476Y-59941428D01*
X65680476Y-59703333D01*
X65728095Y-59512857D01*
X65775714Y-59417619D01*
X65823333Y-59370000D01*
X65918571Y-59322380D01*
%TO.C,R9*%
X114833333Y-105582380D02*
X114500000Y-105106190D01*
X114261904Y-105582380D02*
X114261904Y-104582380D01*
X114642857Y-104582380D01*
X114738095Y-104630000D01*
X114785714Y-104677619D01*
X114833333Y-104772857D01*
X114833333Y-104915714D01*
X114785714Y-105010952D01*
X114738095Y-105058571D01*
X114642857Y-105106190D01*
X114261904Y-105106190D01*
X115309523Y-105582380D02*
X115500000Y-105582380D01*
X115595238Y-105534761D01*
X115642857Y-105487142D01*
X115738095Y-105344285D01*
X115785714Y-105153809D01*
X115785714Y-104772857D01*
X115738095Y-104677619D01*
X115690476Y-104630000D01*
X115595238Y-104582380D01*
X115404761Y-104582380D01*
X115309523Y-104630000D01*
X115261904Y-104677619D01*
X115214285Y-104772857D01*
X115214285Y-105010952D01*
X115261904Y-105106190D01*
X115309523Y-105153809D01*
X115404761Y-105201428D01*
X115595238Y-105201428D01*
X115690476Y-105153809D01*
X115738095Y-105106190D01*
X115785714Y-105010952D01*
%TO.C,R8*%
X114833333Y-85582380D02*
X114500000Y-85106190D01*
X114261904Y-85582380D02*
X114261904Y-84582380D01*
X114642857Y-84582380D01*
X114738095Y-84630000D01*
X114785714Y-84677619D01*
X114833333Y-84772857D01*
X114833333Y-84915714D01*
X114785714Y-85010952D01*
X114738095Y-85058571D01*
X114642857Y-85106190D01*
X114261904Y-85106190D01*
X115404761Y-85010952D02*
X115309523Y-84963333D01*
X115261904Y-84915714D01*
X115214285Y-84820476D01*
X115214285Y-84772857D01*
X115261904Y-84677619D01*
X115309523Y-84630000D01*
X115404761Y-84582380D01*
X115595238Y-84582380D01*
X115690476Y-84630000D01*
X115738095Y-84677619D01*
X115785714Y-84772857D01*
X115785714Y-84820476D01*
X115738095Y-84915714D01*
X115690476Y-84963333D01*
X115595238Y-85010952D01*
X115404761Y-85010952D01*
X115309523Y-85058571D01*
X115261904Y-85106190D01*
X115214285Y-85201428D01*
X115214285Y-85391904D01*
X115261904Y-85487142D01*
X115309523Y-85534761D01*
X115404761Y-85582380D01*
X115595238Y-85582380D01*
X115690476Y-85534761D01*
X115738095Y-85487142D01*
X115785714Y-85391904D01*
X115785714Y-85201428D01*
X115738095Y-85106190D01*
X115690476Y-85058571D01*
X115595238Y-85010952D01*
%TO.C,R7*%
X114833333Y-70582380D02*
X114500000Y-70106190D01*
X114261904Y-70582380D02*
X114261904Y-69582380D01*
X114642857Y-69582380D01*
X114738095Y-69630000D01*
X114785714Y-69677619D01*
X114833333Y-69772857D01*
X114833333Y-69915714D01*
X114785714Y-70010952D01*
X114738095Y-70058571D01*
X114642857Y-70106190D01*
X114261904Y-70106190D01*
X115166666Y-69582380D02*
X115833333Y-69582380D01*
X115404761Y-70582380D01*
%TO.C,R6*%
X114833333Y-55322380D02*
X114500000Y-54846190D01*
X114261904Y-55322380D02*
X114261904Y-54322380D01*
X114642857Y-54322380D01*
X114738095Y-54370000D01*
X114785714Y-54417619D01*
X114833333Y-54512857D01*
X114833333Y-54655714D01*
X114785714Y-54750952D01*
X114738095Y-54798571D01*
X114642857Y-54846190D01*
X114261904Y-54846190D01*
X115690476Y-54322380D02*
X115500000Y-54322380D01*
X115404761Y-54370000D01*
X115357142Y-54417619D01*
X115261904Y-54560476D01*
X115214285Y-54750952D01*
X115214285Y-55131904D01*
X115261904Y-55227142D01*
X115309523Y-55274761D01*
X115404761Y-55322380D01*
X115595238Y-55322380D01*
X115690476Y-55274761D01*
X115738095Y-55227142D01*
X115785714Y-55131904D01*
X115785714Y-54893809D01*
X115738095Y-54798571D01*
X115690476Y-54750952D01*
X115595238Y-54703333D01*
X115404761Y-54703333D01*
X115309523Y-54750952D01*
X115261904Y-54798571D01*
X115214285Y-54893809D01*
%TO.C,R5*%
X64833333Y-105582380D02*
X64500000Y-105106190D01*
X64261904Y-105582380D02*
X64261904Y-104582380D01*
X64642857Y-104582380D01*
X64738095Y-104630000D01*
X64785714Y-104677619D01*
X64833333Y-104772857D01*
X64833333Y-104915714D01*
X64785714Y-105010952D01*
X64738095Y-105058571D01*
X64642857Y-105106190D01*
X64261904Y-105106190D01*
X65738095Y-104582380D02*
X65261904Y-104582380D01*
X65214285Y-105058571D01*
X65261904Y-105010952D01*
X65357142Y-104963333D01*
X65595238Y-104963333D01*
X65690476Y-105010952D01*
X65738095Y-105058571D01*
X65785714Y-105153809D01*
X65785714Y-105391904D01*
X65738095Y-105487142D01*
X65690476Y-105534761D01*
X65595238Y-105582380D01*
X65357142Y-105582380D01*
X65261904Y-105534761D01*
X65214285Y-105487142D01*
%TO.C,R4*%
X64913333Y-85582380D02*
X64580000Y-85106190D01*
X64341904Y-85582380D02*
X64341904Y-84582380D01*
X64722857Y-84582380D01*
X64818095Y-84630000D01*
X64865714Y-84677619D01*
X64913333Y-84772857D01*
X64913333Y-84915714D01*
X64865714Y-85010952D01*
X64818095Y-85058571D01*
X64722857Y-85106190D01*
X64341904Y-85106190D01*
X65770476Y-84915714D02*
X65770476Y-85582380D01*
X65532380Y-84534761D02*
X65294285Y-85249047D01*
X65913333Y-85249047D01*
%TO.C,R3*%
X64833333Y-70452380D02*
X64500000Y-69976190D01*
X64261904Y-70452380D02*
X64261904Y-69452380D01*
X64642857Y-69452380D01*
X64738095Y-69500000D01*
X64785714Y-69547619D01*
X64833333Y-69642857D01*
X64833333Y-69785714D01*
X64785714Y-69880952D01*
X64738095Y-69928571D01*
X64642857Y-69976190D01*
X64261904Y-69976190D01*
X65166666Y-69452380D02*
X65785714Y-69452380D01*
X65452380Y-69833333D01*
X65595238Y-69833333D01*
X65690476Y-69880952D01*
X65738095Y-69928571D01*
X65785714Y-70023809D01*
X65785714Y-70261904D01*
X65738095Y-70357142D01*
X65690476Y-70404761D01*
X65595238Y-70452380D01*
X65309523Y-70452380D01*
X65214285Y-70404761D01*
X65166666Y-70357142D01*
%TO.C,R2*%
X64833333Y-55322380D02*
X64500000Y-54846190D01*
X64261904Y-55322380D02*
X64261904Y-54322380D01*
X64642857Y-54322380D01*
X64738095Y-54370000D01*
X64785714Y-54417619D01*
X64833333Y-54512857D01*
X64833333Y-54655714D01*
X64785714Y-54750952D01*
X64738095Y-54798571D01*
X64642857Y-54846190D01*
X64261904Y-54846190D01*
X65214285Y-54417619D02*
X65261904Y-54370000D01*
X65357142Y-54322380D01*
X65595238Y-54322380D01*
X65690476Y-54370000D01*
X65738095Y-54417619D01*
X65785714Y-54512857D01*
X65785714Y-54608095D01*
X65738095Y-54750952D01*
X65166666Y-55322380D01*
X65785714Y-55322380D01*
%TO.C,R1*%
X42333333Y-93082380D02*
X42000000Y-92606190D01*
X41761904Y-93082380D02*
X41761904Y-92082380D01*
X42142857Y-92082380D01*
X42238095Y-92130000D01*
X42285714Y-92177619D01*
X42333333Y-92272857D01*
X42333333Y-92415714D01*
X42285714Y-92510952D01*
X42238095Y-92558571D01*
X42142857Y-92606190D01*
X41761904Y-92606190D01*
X43285714Y-93082380D02*
X42714285Y-93082380D01*
X43000000Y-93082380D02*
X43000000Y-92082380D01*
X42904761Y-92225238D01*
X42809523Y-92320476D01*
X42714285Y-92368095D01*
%TO.C,Q7*%
X97699481Y-89112339D02*
X97604243Y-89064720D01*
X97509005Y-88969481D01*
X97366148Y-88826624D01*
X97270910Y-88779005D01*
X97175672Y-88779005D01*
X97223291Y-89017100D02*
X97128053Y-88969481D01*
X97032815Y-88874243D01*
X96985196Y-88683767D01*
X96985196Y-88350434D01*
X97032815Y-88159958D01*
X97128053Y-88064720D01*
X97223291Y-88017100D01*
X97413767Y-88017100D01*
X97509005Y-88064720D01*
X97604243Y-88159958D01*
X97651862Y-88350434D01*
X97651862Y-88683767D01*
X97604243Y-88874243D01*
X97509005Y-88969481D01*
X97413767Y-89017100D01*
X97223291Y-89017100D01*
X97985196Y-88017100D02*
X98651862Y-88017100D01*
X98223291Y-89017100D01*
%TO.C,Q5*%
X97779481Y-56612339D02*
X97684243Y-56564720D01*
X97589005Y-56469481D01*
X97446148Y-56326624D01*
X97350910Y-56279005D01*
X97255672Y-56279005D01*
X97303291Y-56517100D02*
X97208053Y-56469481D01*
X97112815Y-56374243D01*
X97065196Y-56183767D01*
X97065196Y-55850434D01*
X97112815Y-55659958D01*
X97208053Y-55564720D01*
X97303291Y-55517100D01*
X97493767Y-55517100D01*
X97589005Y-55564720D01*
X97684243Y-55659958D01*
X97731862Y-55850434D01*
X97731862Y-56183767D01*
X97684243Y-56374243D01*
X97589005Y-56469481D01*
X97493767Y-56517100D01*
X97303291Y-56517100D01*
X98636624Y-55517100D02*
X98160434Y-55517100D01*
X98112815Y-55993291D01*
X98160434Y-55945672D01*
X98255672Y-55898053D01*
X98493767Y-55898053D01*
X98589005Y-55945672D01*
X98636624Y-55993291D01*
X98684243Y-56088529D01*
X98684243Y-56326624D01*
X98636624Y-56421862D01*
X98589005Y-56469481D01*
X98493767Y-56517100D01*
X98255672Y-56517100D01*
X98160434Y-56469481D01*
X98112815Y-56421862D01*
%TO.C,Q3*%
X80159481Y-89112339D02*
X80064243Y-89064720D01*
X79969005Y-88969481D01*
X79826148Y-88826624D01*
X79730910Y-88779005D01*
X79635672Y-88779005D01*
X79683291Y-89017100D02*
X79588053Y-88969481D01*
X79492815Y-88874243D01*
X79445196Y-88683767D01*
X79445196Y-88350434D01*
X79492815Y-88159958D01*
X79588053Y-88064720D01*
X79683291Y-88017100D01*
X79873767Y-88017100D01*
X79969005Y-88064720D01*
X80064243Y-88159958D01*
X80111862Y-88350434D01*
X80111862Y-88683767D01*
X80064243Y-88874243D01*
X79969005Y-88969481D01*
X79873767Y-89017100D01*
X79683291Y-89017100D01*
X80445196Y-88017100D02*
X81064243Y-88017100D01*
X80730910Y-88398053D01*
X80873767Y-88398053D01*
X80969005Y-88445672D01*
X81016624Y-88493291D01*
X81064243Y-88588529D01*
X81064243Y-88826624D01*
X81016624Y-88921862D01*
X80969005Y-88969481D01*
X80873767Y-89017100D01*
X80588053Y-89017100D01*
X80492815Y-88969481D01*
X80445196Y-88921862D01*
%TO.C,Q1*%
X80279481Y-56612339D02*
X80184243Y-56564720D01*
X80089005Y-56469481D01*
X79946148Y-56326624D01*
X79850910Y-56279005D01*
X79755672Y-56279005D01*
X79803291Y-56517100D02*
X79708053Y-56469481D01*
X79612815Y-56374243D01*
X79565196Y-56183767D01*
X79565196Y-55850434D01*
X79612815Y-55659958D01*
X79708053Y-55564720D01*
X79803291Y-55517100D01*
X79993767Y-55517100D01*
X80089005Y-55564720D01*
X80184243Y-55659958D01*
X80231862Y-55850434D01*
X80231862Y-56183767D01*
X80184243Y-56374243D01*
X80089005Y-56469481D01*
X79993767Y-56517100D01*
X79803291Y-56517100D01*
X81184243Y-56517100D02*
X80612815Y-56517100D01*
X80898529Y-56517100D02*
X80898529Y-55517100D01*
X80803291Y-55659958D01*
X80708053Y-55755196D01*
X80612815Y-55802815D01*
%TO.C,J8*%
X189666666Y-67502380D02*
X189666666Y-68216666D01*
X189619047Y-68359523D01*
X189523809Y-68454761D01*
X189380952Y-68502380D01*
X189285714Y-68502380D01*
X190285714Y-67930952D02*
X190190476Y-67883333D01*
X190142857Y-67835714D01*
X190095238Y-67740476D01*
X190095238Y-67692857D01*
X190142857Y-67597619D01*
X190190476Y-67550000D01*
X190285714Y-67502380D01*
X190476190Y-67502380D01*
X190571428Y-67550000D01*
X190619047Y-67597619D01*
X190666666Y-67692857D01*
X190666666Y-67740476D01*
X190619047Y-67835714D01*
X190571428Y-67883333D01*
X190476190Y-67930952D01*
X190285714Y-67930952D01*
X190190476Y-67978571D01*
X190142857Y-68026190D01*
X190095238Y-68121428D01*
X190095238Y-68311904D01*
X190142857Y-68407142D01*
X190190476Y-68454761D01*
X190285714Y-68502380D01*
X190476190Y-68502380D01*
X190571428Y-68454761D01*
X190619047Y-68407142D01*
X190666666Y-68311904D01*
X190666666Y-68121428D01*
X190619047Y-68026190D01*
X190571428Y-67978571D01*
X190476190Y-67930952D01*
%TO.C,J7*%
X189786666Y-115242380D02*
X189786666Y-115956666D01*
X189739047Y-116099523D01*
X189643809Y-116194761D01*
X189500952Y-116242380D01*
X189405714Y-116242380D01*
X190167619Y-115242380D02*
X190834285Y-115242380D01*
X190405714Y-116242380D01*
%TO.C,J6*%
X159786666Y-74172380D02*
X159786666Y-74886666D01*
X159739047Y-75029523D01*
X159643809Y-75124761D01*
X159500952Y-75172380D01*
X159405714Y-75172380D01*
X160691428Y-74172380D02*
X160500952Y-74172380D01*
X160405714Y-74220000D01*
X160358095Y-74267619D01*
X160262857Y-74410476D01*
X160215238Y-74600952D01*
X160215238Y-74981904D01*
X160262857Y-75077142D01*
X160310476Y-75124761D01*
X160405714Y-75172380D01*
X160596190Y-75172380D01*
X160691428Y-75124761D01*
X160739047Y-75077142D01*
X160786666Y-74981904D01*
X160786666Y-74743809D01*
X160739047Y-74648571D01*
X160691428Y-74600952D01*
X160596190Y-74553333D01*
X160405714Y-74553333D01*
X160310476Y-74600952D01*
X160262857Y-74648571D01*
X160215238Y-74743809D01*
%TO.C,J5*%
X159691666Y-26432380D02*
X159691666Y-27146666D01*
X159644047Y-27289523D01*
X159548809Y-27384761D01*
X159405952Y-27432380D01*
X159310714Y-27432380D01*
X160644047Y-26432380D02*
X160167857Y-26432380D01*
X160120238Y-26908571D01*
X160167857Y-26860952D01*
X160263095Y-26813333D01*
X160501190Y-26813333D01*
X160596428Y-26860952D01*
X160644047Y-26908571D01*
X160691666Y-27003809D01*
X160691666Y-27241904D01*
X160644047Y-27337142D01*
X160596428Y-27384761D01*
X160501190Y-27432380D01*
X160263095Y-27432380D01*
X160167857Y-27384761D01*
X160120238Y-27337142D01*
%TO.C,J4*%
X46184225Y-61221701D02*
X46184225Y-61936482D01*
X46136573Y-62079438D01*
X46041269Y-62174742D01*
X45898313Y-62222394D01*
X45803009Y-62222394D01*
X47089614Y-61555265D02*
X47089614Y-62222394D01*
X46851354Y-61174049D02*
X46613094Y-61888830D01*
X47232570Y-61888830D01*
%TO.C,LowerBridge*%
X133714285Y-105452380D02*
X133238095Y-105452380D01*
X133238095Y-104452380D01*
X134190476Y-105452380D02*
X134095238Y-105404761D01*
X134047619Y-105357142D01*
X134000000Y-105261904D01*
X134000000Y-104976190D01*
X134047619Y-104880952D01*
X134095238Y-104833333D01*
X134190476Y-104785714D01*
X134333333Y-104785714D01*
X134428571Y-104833333D01*
X134476190Y-104880952D01*
X134523809Y-104976190D01*
X134523809Y-105261904D01*
X134476190Y-105357142D01*
X134428571Y-105404761D01*
X134333333Y-105452380D01*
X134190476Y-105452380D01*
X134857142Y-104785714D02*
X135047619Y-105452380D01*
X135238095Y-104976190D01*
X135428571Y-105452380D01*
X135619047Y-104785714D01*
X136380952Y-105404761D02*
X136285714Y-105452380D01*
X136095238Y-105452380D01*
X136000000Y-105404761D01*
X135952380Y-105309523D01*
X135952380Y-104928571D01*
X136000000Y-104833333D01*
X136095238Y-104785714D01*
X136285714Y-104785714D01*
X136380952Y-104833333D01*
X136428571Y-104928571D01*
X136428571Y-105023809D01*
X135952380Y-105119047D01*
X136857142Y-105452380D02*
X136857142Y-104785714D01*
X136857142Y-104976190D02*
X136904761Y-104880952D01*
X136952380Y-104833333D01*
X137047619Y-104785714D01*
X137142857Y-104785714D01*
X137809523Y-104928571D02*
X137952380Y-104976190D01*
X138000000Y-105023809D01*
X138047619Y-105119047D01*
X138047619Y-105261904D01*
X138000000Y-105357142D01*
X137952380Y-105404761D01*
X137857142Y-105452380D01*
X137476190Y-105452380D01*
X137476190Y-104452380D01*
X137809523Y-104452380D01*
X137904761Y-104500000D01*
X137952380Y-104547619D01*
X138000000Y-104642857D01*
X138000000Y-104738095D01*
X137952380Y-104833333D01*
X137904761Y-104880952D01*
X137809523Y-104928571D01*
X137476190Y-104928571D01*
X138476190Y-105452380D02*
X138476190Y-104785714D01*
X138476190Y-104976190D02*
X138523809Y-104880952D01*
X138571428Y-104833333D01*
X138666666Y-104785714D01*
X138761904Y-104785714D01*
X139095238Y-105452380D02*
X139095238Y-104785714D01*
X139095238Y-104452380D02*
X139047619Y-104500000D01*
X139095238Y-104547619D01*
X139142857Y-104500000D01*
X139095238Y-104452380D01*
X139095238Y-104547619D01*
X140000000Y-105452380D02*
X140000000Y-104452380D01*
X140000000Y-105404761D02*
X139904761Y-105452380D01*
X139714285Y-105452380D01*
X139619047Y-105404761D01*
X139571428Y-105357142D01*
X139523809Y-105261904D01*
X139523809Y-104976190D01*
X139571428Y-104880952D01*
X139619047Y-104833333D01*
X139714285Y-104785714D01*
X139904761Y-104785714D01*
X140000000Y-104833333D01*
X140904761Y-104785714D02*
X140904761Y-105595238D01*
X140857142Y-105690476D01*
X140809523Y-105738095D01*
X140714285Y-105785714D01*
X140571428Y-105785714D01*
X140476190Y-105738095D01*
X140904761Y-105404761D02*
X140809523Y-105452380D01*
X140619047Y-105452380D01*
X140523809Y-105404761D01*
X140476190Y-105357142D01*
X140428571Y-105261904D01*
X140428571Y-104976190D01*
X140476190Y-104880952D01*
X140523809Y-104833333D01*
X140619047Y-104785714D01*
X140809523Y-104785714D01*
X140904761Y-104833333D01*
X141761904Y-105404761D02*
X141666666Y-105452380D01*
X141476190Y-105452380D01*
X141380952Y-105404761D01*
X141333333Y-105309523D01*
X141333333Y-104928571D01*
X141380952Y-104833333D01*
X141476190Y-104785714D01*
X141666666Y-104785714D01*
X141761904Y-104833333D01*
X141809523Y-104928571D01*
X141809523Y-105023809D01*
X141333333Y-105119047D01*
%TO.C,UpperBridge*%
X133190476Y-84452380D02*
X133190476Y-85261904D01*
X133238095Y-85357142D01*
X133285714Y-85404761D01*
X133380952Y-85452380D01*
X133571428Y-85452380D01*
X133666666Y-85404761D01*
X133714285Y-85357142D01*
X133761904Y-85261904D01*
X133761904Y-84452380D01*
X134238095Y-84785714D02*
X134238095Y-85785714D01*
X134238095Y-84833333D02*
X134333333Y-84785714D01*
X134523809Y-84785714D01*
X134619047Y-84833333D01*
X134666666Y-84880952D01*
X134714285Y-84976190D01*
X134714285Y-85261904D01*
X134666666Y-85357142D01*
X134619047Y-85404761D01*
X134523809Y-85452380D01*
X134333333Y-85452380D01*
X134238095Y-85404761D01*
X135142857Y-84785714D02*
X135142857Y-85785714D01*
X135142857Y-84833333D02*
X135238095Y-84785714D01*
X135428571Y-84785714D01*
X135523809Y-84833333D01*
X135571428Y-84880952D01*
X135619047Y-84976190D01*
X135619047Y-85261904D01*
X135571428Y-85357142D01*
X135523809Y-85404761D01*
X135428571Y-85452380D01*
X135238095Y-85452380D01*
X135142857Y-85404761D01*
X136428571Y-85404761D02*
X136333333Y-85452380D01*
X136142857Y-85452380D01*
X136047619Y-85404761D01*
X136000000Y-85309523D01*
X136000000Y-84928571D01*
X136047619Y-84833333D01*
X136142857Y-84785714D01*
X136333333Y-84785714D01*
X136428571Y-84833333D01*
X136476190Y-84928571D01*
X136476190Y-85023809D01*
X136000000Y-85119047D01*
X136904761Y-85452380D02*
X136904761Y-84785714D01*
X136904761Y-84976190D02*
X136952380Y-84880952D01*
X137000000Y-84833333D01*
X137095238Y-84785714D01*
X137190476Y-84785714D01*
X137857142Y-84928571D02*
X138000000Y-84976190D01*
X138047619Y-85023809D01*
X138095238Y-85119047D01*
X138095238Y-85261904D01*
X138047619Y-85357142D01*
X138000000Y-85404761D01*
X137904761Y-85452380D01*
X137523809Y-85452380D01*
X137523809Y-84452380D01*
X137857142Y-84452380D01*
X137952380Y-84500000D01*
X138000000Y-84547619D01*
X138047619Y-84642857D01*
X138047619Y-84738095D01*
X138000000Y-84833333D01*
X137952380Y-84880952D01*
X137857142Y-84928571D01*
X137523809Y-84928571D01*
X138523809Y-85452380D02*
X138523809Y-84785714D01*
X138523809Y-84976190D02*
X138571428Y-84880952D01*
X138619047Y-84833333D01*
X138714285Y-84785714D01*
X138809523Y-84785714D01*
X139142857Y-85452380D02*
X139142857Y-84785714D01*
X139142857Y-84452380D02*
X139095238Y-84500000D01*
X139142857Y-84547619D01*
X139190476Y-84500000D01*
X139142857Y-84452380D01*
X139142857Y-84547619D01*
X140047619Y-85452380D02*
X140047619Y-84452380D01*
X140047619Y-85404761D02*
X139952380Y-85452380D01*
X139761904Y-85452380D01*
X139666666Y-85404761D01*
X139619047Y-85357142D01*
X139571428Y-85261904D01*
X139571428Y-84976190D01*
X139619047Y-84880952D01*
X139666666Y-84833333D01*
X139761904Y-84785714D01*
X139952380Y-84785714D01*
X140047619Y-84833333D01*
X140952380Y-84785714D02*
X140952380Y-85595238D01*
X140904761Y-85690476D01*
X140857142Y-85738095D01*
X140761904Y-85785714D01*
X140619047Y-85785714D01*
X140523809Y-85738095D01*
X140952380Y-85404761D02*
X140857142Y-85452380D01*
X140666666Y-85452380D01*
X140571428Y-85404761D01*
X140523809Y-85357142D01*
X140476190Y-85261904D01*
X140476190Y-84976190D01*
X140523809Y-84880952D01*
X140571428Y-84833333D01*
X140666666Y-84785714D01*
X140857142Y-84785714D01*
X140952380Y-84833333D01*
X141809523Y-85404761D02*
X141714285Y-85452380D01*
X141523809Y-85452380D01*
X141428571Y-85404761D01*
X141380952Y-85309523D01*
X141380952Y-84928571D01*
X141428571Y-84833333D01*
X141523809Y-84785714D01*
X141714285Y-84785714D01*
X141809523Y-84833333D01*
X141857142Y-84928571D01*
X141857142Y-85023809D01*
X141380952Y-85119047D01*
%TO.C,J1*%
X40547619Y-69706666D02*
X39833333Y-69706666D01*
X39690476Y-69659047D01*
X39595238Y-69563809D01*
X39547619Y-69420952D01*
X39547619Y-69325714D01*
X39547619Y-70706666D02*
X39547619Y-70135238D01*
X39547619Y-70420952D02*
X40547619Y-70420952D01*
X40404761Y-70325714D01*
X40309523Y-70230476D01*
X40261904Y-70135238D01*
%TO.C,F2*%
X57865166Y-32428571D02*
X57531833Y-32428571D01*
X57531833Y-32952380D02*
X57531833Y-31952380D01*
X58008023Y-31952380D01*
X58341357Y-32047619D02*
X58388976Y-32000000D01*
X58484214Y-31952380D01*
X58722309Y-31952380D01*
X58817547Y-32000000D01*
X58865166Y-32047619D01*
X58912785Y-32142857D01*
X58912785Y-32238095D01*
X58865166Y-32380952D01*
X58293738Y-32952380D01*
X58912785Y-32952380D01*
%TO.C,F1*%
X57865166Y-42428571D02*
X57531833Y-42428571D01*
X57531833Y-42952380D02*
X57531833Y-41952380D01*
X58008023Y-41952380D01*
X58912785Y-42952380D02*
X58341357Y-42952380D01*
X58627071Y-42952380D02*
X58627071Y-41952380D01*
X58531833Y-42095238D01*
X58436595Y-42190476D01*
X58341357Y-42238095D01*
%TO.C,D3*%
X135611904Y-28192380D02*
X135611904Y-27192380D01*
X135850000Y-27192380D01*
X135992857Y-27240000D01*
X136088095Y-27335238D01*
X136135714Y-27430476D01*
X136183333Y-27620952D01*
X136183333Y-27763809D01*
X136135714Y-27954285D01*
X136088095Y-28049523D01*
X135992857Y-28144761D01*
X135850000Y-28192380D01*
X135611904Y-28192380D01*
X136516666Y-27192380D02*
X137135714Y-27192380D01*
X136802380Y-27573333D01*
X136945238Y-27573333D01*
X137040476Y-27620952D01*
X137088095Y-27668571D01*
X137135714Y-27763809D01*
X137135714Y-28001904D01*
X137088095Y-28097142D01*
X137040476Y-28144761D01*
X136945238Y-28192380D01*
X136659523Y-28192380D01*
X136564285Y-28144761D01*
X136516666Y-28097142D01*
%TO.C,D2*%
X44531904Y-98192380D02*
X44531904Y-97192380D01*
X44770000Y-97192380D01*
X44912857Y-97240000D01*
X45008095Y-97335238D01*
X45055714Y-97430476D01*
X45103333Y-97620952D01*
X45103333Y-97763809D01*
X45055714Y-97954285D01*
X45008095Y-98049523D01*
X44912857Y-98144761D01*
X44770000Y-98192380D01*
X44531904Y-98192380D01*
X45484285Y-97287619D02*
X45531904Y-97240000D01*
X45627142Y-97192380D01*
X45865238Y-97192380D01*
X45960476Y-97240000D01*
X46008095Y-97287619D01*
X46055714Y-97382857D01*
X46055714Y-97478095D01*
X46008095Y-97620952D01*
X45436666Y-98192380D01*
X46055714Y-98192380D01*
%TO.C,D1*%
X38031904Y-98192380D02*
X38031904Y-97192380D01*
X38270000Y-97192380D01*
X38412857Y-97240000D01*
X38508095Y-97335238D01*
X38555714Y-97430476D01*
X38603333Y-97620952D01*
X38603333Y-97763809D01*
X38555714Y-97954285D01*
X38508095Y-98049523D01*
X38412857Y-98144761D01*
X38270000Y-98192380D01*
X38031904Y-98192380D01*
X39555714Y-98192380D02*
X38984285Y-98192380D01*
X39270000Y-98192380D02*
X39270000Y-97192380D01*
X39174761Y-97335238D01*
X39079523Y-97430476D01*
X38984285Y-97478095D01*
%TO.C,CR8*%
X100031833Y-85357142D02*
X99984214Y-85404761D01*
X99841357Y-85452380D01*
X99746119Y-85452380D01*
X99603261Y-85404761D01*
X99508023Y-85309523D01*
X99460404Y-85214285D01*
X99412785Y-85023809D01*
X99412785Y-84880952D01*
X99460404Y-84690476D01*
X99508023Y-84595238D01*
X99603261Y-84500000D01*
X99746119Y-84452380D01*
X99841357Y-84452380D01*
X99984214Y-84500000D01*
X100031833Y-84547619D01*
X101031833Y-85452380D02*
X100698500Y-84976190D01*
X100460404Y-85452380D02*
X100460404Y-84452380D01*
X100841357Y-84452380D01*
X100936595Y-84500000D01*
X100984214Y-84547619D01*
X101031833Y-84642857D01*
X101031833Y-84785714D01*
X100984214Y-84880952D01*
X100936595Y-84928571D01*
X100841357Y-84976190D01*
X100460404Y-84976190D01*
X101603261Y-84880952D02*
X101508023Y-84833333D01*
X101460404Y-84785714D01*
X101412785Y-84690476D01*
X101412785Y-84642857D01*
X101460404Y-84547619D01*
X101508023Y-84500000D01*
X101603261Y-84452380D01*
X101793738Y-84452380D01*
X101888976Y-84500000D01*
X101936595Y-84547619D01*
X101984214Y-84642857D01*
X101984214Y-84690476D01*
X101936595Y-84785714D01*
X101888976Y-84833333D01*
X101793738Y-84880952D01*
X101603261Y-84880952D01*
X101508023Y-84928571D01*
X101460404Y-84976190D01*
X101412785Y-85071428D01*
X101412785Y-85261904D01*
X101460404Y-85357142D01*
X101508023Y-85404761D01*
X101603261Y-85452380D01*
X101793738Y-85452380D01*
X101888976Y-85404761D01*
X101936595Y-85357142D01*
X101984214Y-85261904D01*
X101984214Y-85071428D01*
X101936595Y-84976190D01*
X101888976Y-84928571D01*
X101793738Y-84880952D01*
%TO.C,CR7*%
X100031833Y-110357142D02*
X99984214Y-110404761D01*
X99841357Y-110452380D01*
X99746119Y-110452380D01*
X99603261Y-110404761D01*
X99508023Y-110309523D01*
X99460404Y-110214285D01*
X99412785Y-110023809D01*
X99412785Y-109880952D01*
X99460404Y-109690476D01*
X99508023Y-109595238D01*
X99603261Y-109500000D01*
X99746119Y-109452380D01*
X99841357Y-109452380D01*
X99984214Y-109500000D01*
X100031833Y-109547619D01*
X101031833Y-110452380D02*
X100698500Y-109976190D01*
X100460404Y-110452380D02*
X100460404Y-109452380D01*
X100841357Y-109452380D01*
X100936595Y-109500000D01*
X100984214Y-109547619D01*
X101031833Y-109642857D01*
X101031833Y-109785714D01*
X100984214Y-109880952D01*
X100936595Y-109928571D01*
X100841357Y-109976190D01*
X100460404Y-109976190D01*
X101365166Y-109452380D02*
X102031833Y-109452380D01*
X101603261Y-110452380D01*
%TO.C,CR6*%
X100031833Y-77857142D02*
X99984214Y-77904761D01*
X99841357Y-77952380D01*
X99746119Y-77952380D01*
X99603261Y-77904761D01*
X99508023Y-77809523D01*
X99460404Y-77714285D01*
X99412785Y-77523809D01*
X99412785Y-77380952D01*
X99460404Y-77190476D01*
X99508023Y-77095238D01*
X99603261Y-77000000D01*
X99746119Y-76952380D01*
X99841357Y-76952380D01*
X99984214Y-77000000D01*
X100031833Y-77047619D01*
X101031833Y-77952380D02*
X100698500Y-77476190D01*
X100460404Y-77952380D02*
X100460404Y-76952380D01*
X100841357Y-76952380D01*
X100936595Y-77000000D01*
X100984214Y-77047619D01*
X101031833Y-77142857D01*
X101031833Y-77285714D01*
X100984214Y-77380952D01*
X100936595Y-77428571D01*
X100841357Y-77476190D01*
X100460404Y-77476190D01*
X101888976Y-76952380D02*
X101698500Y-76952380D01*
X101603261Y-77000000D01*
X101555642Y-77047619D01*
X101460404Y-77190476D01*
X101412785Y-77380952D01*
X101412785Y-77761904D01*
X101460404Y-77857142D01*
X101508023Y-77904761D01*
X101603261Y-77952380D01*
X101793738Y-77952380D01*
X101888976Y-77904761D01*
X101936595Y-77857142D01*
X101984214Y-77761904D01*
X101984214Y-77523809D01*
X101936595Y-77428571D01*
X101888976Y-77380952D01*
X101793738Y-77333333D01*
X101603261Y-77333333D01*
X101508023Y-77380952D01*
X101460404Y-77428571D01*
X101412785Y-77523809D01*
%TO.C,CR5*%
X100031833Y-52857142D02*
X99984214Y-52904761D01*
X99841357Y-52952380D01*
X99746119Y-52952380D01*
X99603261Y-52904761D01*
X99508023Y-52809523D01*
X99460404Y-52714285D01*
X99412785Y-52523809D01*
X99412785Y-52380952D01*
X99460404Y-52190476D01*
X99508023Y-52095238D01*
X99603261Y-52000000D01*
X99746119Y-51952380D01*
X99841357Y-51952380D01*
X99984214Y-52000000D01*
X100031833Y-52047619D01*
X101031833Y-52952380D02*
X100698500Y-52476190D01*
X100460404Y-52952380D02*
X100460404Y-51952380D01*
X100841357Y-51952380D01*
X100936595Y-52000000D01*
X100984214Y-52047619D01*
X101031833Y-52142857D01*
X101031833Y-52285714D01*
X100984214Y-52380952D01*
X100936595Y-52428571D01*
X100841357Y-52476190D01*
X100460404Y-52476190D01*
X101936595Y-51952380D02*
X101460404Y-51952380D01*
X101412785Y-52428571D01*
X101460404Y-52380952D01*
X101555642Y-52333333D01*
X101793738Y-52333333D01*
X101888976Y-52380952D01*
X101936595Y-52428571D01*
X101984214Y-52523809D01*
X101984214Y-52761904D01*
X101936595Y-52857142D01*
X101888976Y-52904761D01*
X101793738Y-52952380D01*
X101555642Y-52952380D01*
X101460404Y-52904761D01*
X101412785Y-52857142D01*
%TO.C,CR4*%
X82531833Y-110357142D02*
X82484214Y-110404761D01*
X82341357Y-110452380D01*
X82246119Y-110452380D01*
X82103261Y-110404761D01*
X82008023Y-110309523D01*
X81960404Y-110214285D01*
X81912785Y-110023809D01*
X81912785Y-109880952D01*
X81960404Y-109690476D01*
X82008023Y-109595238D01*
X82103261Y-109500000D01*
X82246119Y-109452380D01*
X82341357Y-109452380D01*
X82484214Y-109500000D01*
X82531833Y-109547619D01*
X83531833Y-110452380D02*
X83198500Y-109976190D01*
X82960404Y-110452380D02*
X82960404Y-109452380D01*
X83341357Y-109452380D01*
X83436595Y-109500000D01*
X83484214Y-109547619D01*
X83531833Y-109642857D01*
X83531833Y-109785714D01*
X83484214Y-109880952D01*
X83436595Y-109928571D01*
X83341357Y-109976190D01*
X82960404Y-109976190D01*
X84388976Y-109785714D02*
X84388976Y-110452380D01*
X84150880Y-109404761D02*
X83912785Y-110119047D01*
X84531833Y-110119047D01*
%TO.C,CR3*%
X82531833Y-85357142D02*
X82484214Y-85404761D01*
X82341357Y-85452380D01*
X82246119Y-85452380D01*
X82103261Y-85404761D01*
X82008023Y-85309523D01*
X81960404Y-85214285D01*
X81912785Y-85023809D01*
X81912785Y-84880952D01*
X81960404Y-84690476D01*
X82008023Y-84595238D01*
X82103261Y-84500000D01*
X82246119Y-84452380D01*
X82341357Y-84452380D01*
X82484214Y-84500000D01*
X82531833Y-84547619D01*
X83531833Y-85452380D02*
X83198500Y-84976190D01*
X82960404Y-85452380D02*
X82960404Y-84452380D01*
X83341357Y-84452380D01*
X83436595Y-84500000D01*
X83484214Y-84547619D01*
X83531833Y-84642857D01*
X83531833Y-84785714D01*
X83484214Y-84880952D01*
X83436595Y-84928571D01*
X83341357Y-84976190D01*
X82960404Y-84976190D01*
X83865166Y-84452380D02*
X84484214Y-84452380D01*
X84150880Y-84833333D01*
X84293738Y-84833333D01*
X84388976Y-84880952D01*
X84436595Y-84928571D01*
X84484214Y-85023809D01*
X84484214Y-85261904D01*
X84436595Y-85357142D01*
X84388976Y-85404761D01*
X84293738Y-85452380D01*
X84008023Y-85452380D01*
X83912785Y-85404761D01*
X83865166Y-85357142D01*
%TO.C,CR2*%
X82531833Y-77857142D02*
X82484214Y-77904761D01*
X82341357Y-77952380D01*
X82246119Y-77952380D01*
X82103261Y-77904761D01*
X82008023Y-77809523D01*
X81960404Y-77714285D01*
X81912785Y-77523809D01*
X81912785Y-77380952D01*
X81960404Y-77190476D01*
X82008023Y-77095238D01*
X82103261Y-77000000D01*
X82246119Y-76952380D01*
X82341357Y-76952380D01*
X82484214Y-77000000D01*
X82531833Y-77047619D01*
X83531833Y-77952380D02*
X83198500Y-77476190D01*
X82960404Y-77952380D02*
X82960404Y-76952380D01*
X83341357Y-76952380D01*
X83436595Y-77000000D01*
X83484214Y-77047619D01*
X83531833Y-77142857D01*
X83531833Y-77285714D01*
X83484214Y-77380952D01*
X83436595Y-77428571D01*
X83341357Y-77476190D01*
X82960404Y-77476190D01*
X83912785Y-77047619D02*
X83960404Y-77000000D01*
X84055642Y-76952380D01*
X84293738Y-76952380D01*
X84388976Y-77000000D01*
X84436595Y-77047619D01*
X84484214Y-77142857D01*
X84484214Y-77238095D01*
X84436595Y-77380952D01*
X83865166Y-77952380D01*
X84484214Y-77952380D01*
%TO.C,CR1*%
X82531833Y-52857142D02*
X82484214Y-52904761D01*
X82341357Y-52952380D01*
X82246119Y-52952380D01*
X82103261Y-52904761D01*
X82008023Y-52809523D01*
X81960404Y-52714285D01*
X81912785Y-52523809D01*
X81912785Y-52380952D01*
X81960404Y-52190476D01*
X82008023Y-52095238D01*
X82103261Y-52000000D01*
X82246119Y-51952380D01*
X82341357Y-51952380D01*
X82484214Y-52000000D01*
X82531833Y-52047619D01*
X83531833Y-52952380D02*
X83198500Y-52476190D01*
X82960404Y-52952380D02*
X82960404Y-51952380D01*
X83341357Y-51952380D01*
X83436595Y-52000000D01*
X83484214Y-52047619D01*
X83531833Y-52142857D01*
X83531833Y-52285714D01*
X83484214Y-52380952D01*
X83436595Y-52428571D01*
X83341357Y-52476190D01*
X82960404Y-52476190D01*
X84484214Y-52952380D02*
X83912785Y-52952380D01*
X84198500Y-52952380D02*
X84198500Y-51952380D01*
X84103261Y-52095238D01*
X84008023Y-52190476D01*
X83912785Y-52238095D01*
%TO.C,C4*%
X39833333Y-77357142D02*
X39785714Y-77404761D01*
X39642857Y-77452380D01*
X39547619Y-77452380D01*
X39404761Y-77404761D01*
X39309523Y-77309523D01*
X39261904Y-77214285D01*
X39214285Y-77023809D01*
X39214285Y-76880952D01*
X39261904Y-76690476D01*
X39309523Y-76595238D01*
X39404761Y-76500000D01*
X39547619Y-76452380D01*
X39642857Y-76452380D01*
X39785714Y-76500000D01*
X39833333Y-76547619D01*
X40690476Y-76785714D02*
X40690476Y-77452380D01*
X40452380Y-76404761D02*
X40214285Y-77119047D01*
X40833333Y-77119047D01*
%TO.C,C3*%
X133383333Y-100107142D02*
X133335714Y-100154761D01*
X133192857Y-100202380D01*
X133097619Y-100202380D01*
X132954761Y-100154761D01*
X132859523Y-100059523D01*
X132811904Y-99964285D01*
X132764285Y-99773809D01*
X132764285Y-99630952D01*
X132811904Y-99440476D01*
X132859523Y-99345238D01*
X132954761Y-99250000D01*
X133097619Y-99202380D01*
X133192857Y-99202380D01*
X133335714Y-99250000D01*
X133383333Y-99297619D01*
X133716666Y-99202380D02*
X134335714Y-99202380D01*
X134002380Y-99583333D01*
X134145238Y-99583333D01*
X134240476Y-99630952D01*
X134288095Y-99678571D01*
X134335714Y-99773809D01*
X134335714Y-100011904D01*
X134288095Y-100107142D01*
X134240476Y-100154761D01*
X134145238Y-100202380D01*
X133859523Y-100202380D01*
X133764285Y-100154761D01*
X133716666Y-100107142D01*
%TO.C,C2*%
X133383333Y-95107142D02*
X133335714Y-95154761D01*
X133192857Y-95202380D01*
X133097619Y-95202380D01*
X132954761Y-95154761D01*
X132859523Y-95059523D01*
X132811904Y-94964285D01*
X132764285Y-94773809D01*
X132764285Y-94630952D01*
X132811904Y-94440476D01*
X132859523Y-94345238D01*
X132954761Y-94250000D01*
X133097619Y-94202380D01*
X133192857Y-94202380D01*
X133335714Y-94250000D01*
X133383333Y-94297619D01*
X133764285Y-94297619D02*
X133811904Y-94250000D01*
X133907142Y-94202380D01*
X134145238Y-94202380D01*
X134240476Y-94250000D01*
X134288095Y-94297619D01*
X134335714Y-94392857D01*
X134335714Y-94488095D01*
X134288095Y-94630952D01*
X133716666Y-95202380D01*
X134335714Y-95202380D01*
%TO.C,C1*%
X49833333Y-77357142D02*
X49785714Y-77404761D01*
X49642857Y-77452380D01*
X49547619Y-77452380D01*
X49404761Y-77404761D01*
X49309523Y-77309523D01*
X49261904Y-77214285D01*
X49214285Y-77023809D01*
X49214285Y-76880952D01*
X49261904Y-76690476D01*
X49309523Y-76595238D01*
X49404761Y-76500000D01*
X49547619Y-76452380D01*
X49642857Y-76452380D01*
X49785714Y-76500000D01*
X49833333Y-76547619D01*
X50785714Y-77452380D02*
X50214285Y-77452380D01*
X50500000Y-77452380D02*
X50500000Y-76452380D01*
X50404761Y-76595238D01*
X50309523Y-76690476D01*
X50214285Y-76738095D01*
D12*
%TO.C,U1*%
X165600000Y-29720000D02*
G75*
G03*
X165600000Y-29720000I-100000J0D01*
G01*
D13*
X183890000Y-25910000D02*
X166110000Y-25910000D01*
X183890000Y-69090000D02*
X183890000Y-25910000D01*
X166110000Y-69090000D02*
X183890000Y-69090000D01*
X166110000Y-25910000D02*
X166110000Y-69090000D01*
%TO.C,U2*%
X166230000Y-73650000D02*
X166230000Y-116830000D01*
X166230000Y-116830000D02*
X184010000Y-116830000D01*
X184010000Y-116830000D02*
X184010000Y-73650000D01*
X184010000Y-73650000D02*
X166230000Y-73650000D01*
D12*
X165720000Y-77460000D02*
G75*
G03*
X165720000Y-77460000I-100000J0D01*
G01*
D14*
%TO.C,Laser*%
X126270000Y-31290000D02*
X128870000Y-31290000D01*
X126270000Y-28630000D02*
X128870000Y-28630000D01*
X126270000Y-31290000D02*
X126270000Y-28630000D01*
X123670000Y-29960000D02*
X123670000Y-28630000D01*
X123670000Y-28630000D02*
X125000000Y-28630000D01*
X128870000Y-31290000D02*
X128870000Y-28630000D01*
D13*
%TO.C,U4*%
X136700000Y-77300000D02*
X136700000Y-77800000D01*
X143300000Y-77300000D02*
X143300000Y-77800000D01*
X143300000Y-67200000D02*
X143300000Y-67700000D01*
X136700000Y-67200000D02*
X136700000Y-67700000D01*
D12*
X134750000Y-68720000D02*
G75*
G03*
X134750000Y-68720000I-100000J0D01*
G01*
D13*
X143300000Y-77800000D02*
X136700000Y-77800000D01*
X136700000Y-67200000D02*
X143300000Y-67200000D01*
%TO.C,U3*%
X136700000Y-44700000D02*
X143300000Y-44700000D01*
X143300000Y-55300000D02*
X136700000Y-55300000D01*
D12*
X134750000Y-46220000D02*
G75*
G03*
X134750000Y-46220000I-100000J0D01*
G01*
D13*
X136700000Y-44700000D02*
X136700000Y-45200000D01*
X143300000Y-44700000D02*
X143300000Y-45200000D01*
X143300000Y-54800000D02*
X143300000Y-55300000D01*
X136700000Y-54800000D02*
X136700000Y-55300000D01*
D14*
%TO.C,2R*%
X46170000Y-111170000D02*
X47500000Y-111170000D01*
X46170000Y-113770000D02*
X48830000Y-113770000D01*
X46170000Y-113830000D02*
X48830000Y-113830000D01*
X48830000Y-113770000D02*
X48830000Y-113830000D01*
X46170000Y-113770000D02*
X46170000Y-113830000D01*
X46170000Y-112500000D02*
X46170000Y-111170000D01*
%TO.C,1R*%
X113670000Y-78670000D02*
X115000000Y-78670000D01*
X113670000Y-81270000D02*
X116330000Y-81270000D01*
X113670000Y-81330000D02*
X116330000Y-81330000D01*
X116330000Y-81270000D02*
X116330000Y-81330000D01*
X113670000Y-81270000D02*
X113670000Y-81330000D01*
X113670000Y-80000000D02*
X113670000Y-78670000D01*
%TO.C,1L*%
X63670000Y-78670000D02*
X65000000Y-78670000D01*
X63670000Y-81270000D02*
X66330000Y-81270000D01*
X63670000Y-81330000D02*
X66330000Y-81330000D01*
X66330000Y-81270000D02*
X66330000Y-81330000D01*
X63670000Y-81270000D02*
X63670000Y-81330000D01*
X63670000Y-80000000D02*
X63670000Y-78670000D01*
%TO.C,2L*%
X41170000Y-111170000D02*
X42500000Y-111170000D01*
X41170000Y-113770000D02*
X43830000Y-113770000D01*
X41170000Y-113830000D02*
X43830000Y-113830000D01*
X43830000Y-113770000D02*
X43830000Y-113830000D01*
X41170000Y-113770000D02*
X41170000Y-113830000D01*
X41170000Y-112500000D02*
X41170000Y-111170000D01*
%TO.C,GND*%
X36170000Y-107500000D02*
X36170000Y-106170000D01*
X36170000Y-108770000D02*
X36170000Y-108830000D01*
X38830000Y-108770000D02*
X38830000Y-108830000D01*
X36170000Y-108830000D02*
X38830000Y-108830000D01*
X36170000Y-108770000D02*
X38830000Y-108770000D01*
X36170000Y-106170000D02*
X37500000Y-106170000D01*
%TO.C,PS*%
X36170000Y-111170000D02*
X37500000Y-111170000D01*
X36170000Y-113770000D02*
X38830000Y-113770000D01*
X36170000Y-113830000D02*
X38830000Y-113830000D01*
X38830000Y-113770000D02*
X38830000Y-113830000D01*
X36170000Y-113770000D02*
X36170000Y-113830000D01*
X36170000Y-112500000D02*
X36170000Y-111170000D01*
%TO.C,SW2*%
X83042500Y-33517500D02*
X83042500Y-28317500D01*
X85092500Y-27567500D02*
X94992500Y-27567500D01*
X82742500Y-27917500D02*
X82742500Y-26617500D01*
X82742500Y-26617500D02*
X84042500Y-26617500D01*
X94992500Y-34267500D02*
X85092500Y-34267500D01*
X97042500Y-28317500D02*
X97042500Y-33517500D01*
%TO.C,SW1*%
X100542500Y-33517500D02*
X100542500Y-28317500D01*
X102592500Y-27567500D02*
X112492500Y-27567500D01*
X100242500Y-27917500D02*
X100242500Y-26617500D01*
X100242500Y-26617500D02*
X101542500Y-26617500D01*
X112492500Y-34267500D02*
X102592500Y-34267500D01*
X114542500Y-28317500D02*
X114542500Y-33517500D01*
%TO.C,R27*%
X143460000Y-30000000D02*
X144230000Y-30000000D01*
X151540000Y-30000000D02*
X150770000Y-30000000D01*
X150770000Y-31370000D02*
X150770000Y-28630000D01*
X144230000Y-28630000D02*
X144230000Y-31370000D01*
X150770000Y-28630000D02*
X144230000Y-28630000D01*
X144230000Y-31370000D02*
X150770000Y-31370000D01*
%TO.C,R26*%
X148630000Y-71730000D02*
X148630000Y-78270000D01*
X151370000Y-78270000D02*
X151370000Y-71730000D01*
X151370000Y-71730000D02*
X148630000Y-71730000D01*
X148630000Y-78270000D02*
X151370000Y-78270000D01*
X150000000Y-79040000D02*
X150000000Y-78270000D01*
X150000000Y-70960000D02*
X150000000Y-71730000D01*
%TO.C,R25*%
X150000000Y-45960000D02*
X150000000Y-46730000D01*
X150000000Y-54040000D02*
X150000000Y-53270000D01*
X148630000Y-53270000D02*
X151370000Y-53270000D01*
X151370000Y-46730000D02*
X148630000Y-46730000D01*
X151370000Y-53270000D02*
X151370000Y-46730000D01*
X148630000Y-46730000D02*
X148630000Y-53270000D01*
%TO.C,R24*%
X150770000Y-61130000D02*
X144230000Y-61130000D01*
X144230000Y-63870000D02*
X150770000Y-63870000D01*
X150770000Y-63870000D02*
X150770000Y-61130000D01*
X144230000Y-61130000D02*
X144230000Y-63870000D01*
X143460000Y-62500000D02*
X144230000Y-62500000D01*
X151540000Y-62500000D02*
X150770000Y-62500000D01*
%TO.C,R23*%
X151540000Y-40000000D02*
X150770000Y-40000000D01*
X143460000Y-40000000D02*
X144230000Y-40000000D01*
X144230000Y-38630000D02*
X144230000Y-41370000D01*
X150770000Y-41370000D02*
X150770000Y-38630000D01*
X144230000Y-41370000D02*
X150770000Y-41370000D01*
X150770000Y-38630000D02*
X144230000Y-38630000D01*
%TO.C,R22*%
X135770000Y-61130000D02*
X129230000Y-61130000D01*
X129230000Y-63870000D02*
X135770000Y-63870000D01*
X135770000Y-63870000D02*
X135770000Y-61130000D01*
X129230000Y-61130000D02*
X129230000Y-63870000D01*
X128460000Y-62500000D02*
X129230000Y-62500000D01*
X136540000Y-62500000D02*
X135770000Y-62500000D01*
%TO.C,R21*%
X136540000Y-40000000D02*
X135770000Y-40000000D01*
X128460000Y-40000000D02*
X129230000Y-40000000D01*
X129230000Y-38630000D02*
X129230000Y-41370000D01*
X135770000Y-41370000D02*
X135770000Y-38630000D01*
X129230000Y-41370000D02*
X135770000Y-41370000D01*
X135770000Y-38630000D02*
X129230000Y-38630000D01*
%TO.C,R20*%
X128630000Y-71730000D02*
X128630000Y-78270000D01*
X131370000Y-78270000D02*
X131370000Y-71730000D01*
X131370000Y-71730000D02*
X128630000Y-71730000D01*
X128630000Y-78270000D02*
X131370000Y-78270000D01*
X130000000Y-79040000D02*
X130000000Y-78270000D01*
X130000000Y-70960000D02*
X130000000Y-71730000D01*
%TO.C,R19*%
X130000000Y-45960000D02*
X130000000Y-46730000D01*
X130000000Y-54040000D02*
X130000000Y-53270000D01*
X128630000Y-53270000D02*
X131370000Y-53270000D01*
X131370000Y-46730000D02*
X128630000Y-46730000D01*
X131370000Y-53270000D02*
X131370000Y-46730000D01*
X128630000Y-46730000D02*
X128630000Y-53270000D01*
%TO.C,R18*%
X45770000Y-88630000D02*
X39230000Y-88630000D01*
X39230000Y-91370000D02*
X45770000Y-91370000D01*
X45770000Y-91370000D02*
X45770000Y-88630000D01*
X39230000Y-88630000D02*
X39230000Y-91370000D01*
X38460000Y-90000000D02*
X39230000Y-90000000D01*
X46540000Y-90000000D02*
X45770000Y-90000000D01*
%TO.C,R17*%
X119040000Y-102500000D02*
X118270000Y-102500000D01*
X110960000Y-102500000D02*
X111730000Y-102500000D01*
X111730000Y-101130000D02*
X111730000Y-103870000D01*
X118270000Y-103870000D02*
X118270000Y-101130000D01*
X111730000Y-103870000D02*
X118270000Y-103870000D01*
X118270000Y-101130000D02*
X111730000Y-101130000D01*
%TO.C,R16*%
X118270000Y-91130000D02*
X111730000Y-91130000D01*
X111730000Y-93870000D02*
X118270000Y-93870000D01*
X118270000Y-93870000D02*
X118270000Y-91130000D01*
X111730000Y-91130000D02*
X111730000Y-93870000D01*
X110960000Y-92500000D02*
X111730000Y-92500000D01*
X119040000Y-92500000D02*
X118270000Y-92500000D01*
%TO.C,R15*%
X118270000Y-66130000D02*
X111730000Y-66130000D01*
X111730000Y-68870000D02*
X118270000Y-68870000D01*
X118270000Y-68870000D02*
X118270000Y-66130000D01*
X111730000Y-66130000D02*
X111730000Y-68870000D01*
X110960000Y-67500000D02*
X111730000Y-67500000D01*
X119040000Y-67500000D02*
X118270000Y-67500000D01*
%TO.C,R14*%
X118270000Y-56130000D02*
X111730000Y-56130000D01*
X111730000Y-58870000D02*
X118270000Y-58870000D01*
X118270000Y-58870000D02*
X118270000Y-56130000D01*
X111730000Y-56130000D02*
X111730000Y-58870000D01*
X110960000Y-57500000D02*
X111730000Y-57500000D01*
X119040000Y-57500000D02*
X118270000Y-57500000D01*
%TO.C,R13*%
X69040000Y-102500000D02*
X68270000Y-102500000D01*
X60960000Y-102500000D02*
X61730000Y-102500000D01*
X61730000Y-101130000D02*
X61730000Y-103870000D01*
X68270000Y-103870000D02*
X68270000Y-101130000D01*
X61730000Y-103870000D02*
X68270000Y-103870000D01*
X68270000Y-101130000D02*
X61730000Y-101130000D01*
%TO.C,R12*%
X69040000Y-92500000D02*
X68270000Y-92500000D01*
X60960000Y-92500000D02*
X61730000Y-92500000D01*
X61730000Y-91130000D02*
X61730000Y-93870000D01*
X68270000Y-93870000D02*
X68270000Y-91130000D01*
X61730000Y-93870000D02*
X68270000Y-93870000D01*
X68270000Y-91130000D02*
X61730000Y-91130000D01*
%TO.C,R11*%
X60980000Y-72500000D02*
X61750000Y-72500000D01*
X69060000Y-72500000D02*
X68290000Y-72500000D01*
X68290000Y-73870000D02*
X68290000Y-71130000D01*
X61750000Y-71130000D02*
X61750000Y-73870000D01*
X68290000Y-71130000D02*
X61750000Y-71130000D01*
X61750000Y-73870000D02*
X68290000Y-73870000D01*
%TO.C,R10*%
X61720000Y-58870000D02*
X68260000Y-58870000D01*
X68260000Y-56130000D02*
X61720000Y-56130000D01*
X61720000Y-56130000D02*
X61720000Y-58870000D01*
X68260000Y-58870000D02*
X68260000Y-56130000D01*
X69030000Y-57500000D02*
X68260000Y-57500000D01*
X60950000Y-57500000D02*
X61720000Y-57500000D01*
%TO.C,R9*%
X119040000Y-107500000D02*
X118270000Y-107500000D01*
X110960000Y-107500000D02*
X111730000Y-107500000D01*
X111730000Y-106130000D02*
X111730000Y-108870000D01*
X118270000Y-108870000D02*
X118270000Y-106130000D01*
X111730000Y-108870000D02*
X118270000Y-108870000D01*
X118270000Y-106130000D02*
X111730000Y-106130000D01*
%TO.C,R8*%
X118270000Y-86130000D02*
X111730000Y-86130000D01*
X111730000Y-88870000D02*
X118270000Y-88870000D01*
X118270000Y-88870000D02*
X118270000Y-86130000D01*
X111730000Y-86130000D02*
X111730000Y-88870000D01*
X110960000Y-87500000D02*
X111730000Y-87500000D01*
X119040000Y-87500000D02*
X118270000Y-87500000D01*
%TO.C,R7*%
X119040000Y-72500000D02*
X118270000Y-72500000D01*
X110960000Y-72500000D02*
X111730000Y-72500000D01*
X111730000Y-71130000D02*
X111730000Y-73870000D01*
X118270000Y-73870000D02*
X118270000Y-71130000D01*
X111730000Y-73870000D02*
X118270000Y-73870000D01*
X118270000Y-71130000D02*
X111730000Y-71130000D01*
%TO.C,R6*%
X111730000Y-53870000D02*
X118270000Y-53870000D01*
X118270000Y-51130000D02*
X111730000Y-51130000D01*
X111730000Y-51130000D02*
X111730000Y-53870000D01*
X118270000Y-53870000D02*
X118270000Y-51130000D01*
X119040000Y-52500000D02*
X118270000Y-52500000D01*
X110960000Y-52500000D02*
X111730000Y-52500000D01*
%TO.C,R5*%
X69040000Y-107500000D02*
X68270000Y-107500000D01*
X60960000Y-107500000D02*
X61730000Y-107500000D01*
X61730000Y-106130000D02*
X61730000Y-108870000D01*
X68270000Y-108870000D02*
X68270000Y-106130000D01*
X61730000Y-108870000D02*
X68270000Y-108870000D01*
X68270000Y-106130000D02*
X61730000Y-106130000D01*
%TO.C,R4*%
X69120000Y-87500000D02*
X68350000Y-87500000D01*
X61040000Y-87500000D02*
X61810000Y-87500000D01*
X61810000Y-86130000D02*
X61810000Y-88870000D01*
X68350000Y-88870000D02*
X68350000Y-86130000D01*
X61810000Y-88870000D02*
X68350000Y-88870000D01*
X68350000Y-86130000D02*
X61810000Y-86130000D01*
%TO.C,R3*%
X69040000Y-67500000D02*
X68270000Y-67500000D01*
X60960000Y-67500000D02*
X61730000Y-67500000D01*
X61730000Y-66130000D02*
X61730000Y-68870000D01*
X68270000Y-68870000D02*
X68270000Y-66130000D01*
X61730000Y-68870000D02*
X68270000Y-68870000D01*
X68270000Y-66130000D02*
X61730000Y-66130000D01*
%TO.C,R2*%
X61730000Y-53870000D02*
X68270000Y-53870000D01*
X68270000Y-51130000D02*
X61730000Y-51130000D01*
X61730000Y-51130000D02*
X61730000Y-53870000D01*
X68270000Y-53870000D02*
X68270000Y-51130000D01*
X69040000Y-52500000D02*
X68270000Y-52500000D01*
X60960000Y-52500000D02*
X61730000Y-52500000D01*
%TO.C,R1*%
X45770000Y-93630000D02*
X39230000Y-93630000D01*
X39230000Y-96370000D02*
X45770000Y-96370000D01*
X45770000Y-96370000D02*
X45770000Y-93630000D01*
X39230000Y-93630000D02*
X39230000Y-96370000D01*
X38460000Y-95000000D02*
X39230000Y-95000000D01*
X46540000Y-95000000D02*
X45770000Y-95000000D01*
D15*
%TO.C,Q8*%
X92924200Y-102500000D02*
G75*
G03*
X92924200Y-102500000I-127000J0D01*
G01*
X94702200Y-101318900D02*
X97007508Y-101318900D01*
X94575200Y-104951100D02*
X105344800Y-104951100D01*
X105344800Y-104951100D02*
X105344800Y-100048900D01*
X105344800Y-100048900D02*
X94575200Y-100048900D01*
X94575200Y-100048900D02*
X94575200Y-104951100D01*
X97632492Y-101318900D02*
X99647507Y-101318900D01*
X100272492Y-101318900D02*
X102287507Y-101318900D01*
X102912492Y-101318900D02*
X105217800Y-101318900D01*
D13*
%TO.C,Q7*%
X94620000Y-89555000D02*
X105300000Y-89555000D01*
X105300000Y-89555000D02*
X105300000Y-94385000D01*
X94620000Y-94385000D02*
X94620000Y-89555000D01*
X105300000Y-94385000D02*
X94620000Y-94385000D01*
D16*
X93961419Y-92500000D02*
G75*
G03*
X93961419Y-92500000I-141419J0D01*
G01*
D15*
%TO.C,Q6*%
X93004200Y-70000000D02*
G75*
G03*
X93004200Y-70000000I-127000J0D01*
G01*
X94782200Y-68818900D02*
X97087508Y-68818900D01*
X94655200Y-72451100D02*
X105424800Y-72451100D01*
X105424800Y-72451100D02*
X105424800Y-67548900D01*
X105424800Y-67548900D02*
X94655200Y-67548900D01*
X94655200Y-67548900D02*
X94655200Y-72451100D01*
X97712492Y-68818900D02*
X99727507Y-68818900D01*
X100352492Y-68818900D02*
X102367507Y-68818900D01*
X102992492Y-68818900D02*
X105297800Y-68818900D01*
D13*
%TO.C,Q5*%
X94700000Y-57055000D02*
X105380000Y-57055000D01*
X105380000Y-57055000D02*
X105380000Y-61885000D01*
X94700000Y-61885000D02*
X94700000Y-57055000D01*
X105380000Y-61885000D02*
X94700000Y-61885000D01*
D16*
X94041419Y-60000000D02*
G75*
G03*
X94041419Y-60000000I-141419J0D01*
G01*
D15*
%TO.C,Q4*%
X75354200Y-102500000D02*
G75*
G03*
X75354200Y-102500000I-127000J0D01*
G01*
X77132200Y-101318900D02*
X79437508Y-101318900D01*
X77005200Y-104951100D02*
X87774800Y-104951100D01*
X87774800Y-104951100D02*
X87774800Y-100048900D01*
X87774800Y-100048900D02*
X77005200Y-100048900D01*
X77005200Y-100048900D02*
X77005200Y-104951100D01*
X80062492Y-101318900D02*
X82077507Y-101318900D01*
X82702492Y-101318900D02*
X84717507Y-101318900D01*
X85342492Y-101318900D02*
X87647800Y-101318900D01*
D13*
%TO.C,Q3*%
X77080000Y-89555000D02*
X87760000Y-89555000D01*
X87760000Y-89555000D02*
X87760000Y-94385000D01*
X77080000Y-94385000D02*
X77080000Y-89555000D01*
X87760000Y-94385000D02*
X77080000Y-94385000D01*
D16*
X76421419Y-92500000D02*
G75*
G03*
X76421419Y-92500000I-141419J0D01*
G01*
D15*
%TO.C,Q2*%
X75484200Y-70000000D02*
G75*
G03*
X75484200Y-70000000I-127000J0D01*
G01*
X77262200Y-68818900D02*
X79567508Y-68818900D01*
X77135200Y-72451100D02*
X87904800Y-72451100D01*
X87904800Y-72451100D02*
X87904800Y-67548900D01*
X87904800Y-67548900D02*
X77135200Y-67548900D01*
X77135200Y-67548900D02*
X77135200Y-72451100D01*
X80192492Y-68818900D02*
X82207507Y-68818900D01*
X82832492Y-68818900D02*
X84847507Y-68818900D01*
X85472492Y-68818900D02*
X87777800Y-68818900D01*
D13*
%TO.C,Q1*%
X77200000Y-57055000D02*
X87880000Y-57055000D01*
X87880000Y-57055000D02*
X87880000Y-61885000D01*
X77200000Y-61885000D02*
X77200000Y-57055000D01*
X87880000Y-61885000D02*
X77200000Y-61885000D01*
D16*
X76541419Y-60000000D02*
G75*
G03*
X76541419Y-60000000I-141419J0D01*
G01*
D14*
%TO.C,J8*%
X191330000Y-64010000D02*
X188670000Y-64010000D01*
X191330000Y-64010000D02*
X191330000Y-28390000D01*
X190000000Y-66610000D02*
X188670000Y-66610000D01*
X188670000Y-66610000D02*
X188670000Y-65280000D01*
X191330000Y-28390000D02*
X188670000Y-28390000D01*
X188670000Y-64010000D02*
X188670000Y-28390000D01*
%TO.C,J7*%
X188790000Y-111750000D02*
X188790000Y-76130000D01*
X191450000Y-76130000D02*
X188790000Y-76130000D01*
X188790000Y-114350000D02*
X188790000Y-113020000D01*
X190120000Y-114350000D02*
X188790000Y-114350000D01*
X191450000Y-111750000D02*
X191450000Y-76130000D01*
X191450000Y-111750000D02*
X188790000Y-111750000D01*
%TO.C,J6*%
X161450000Y-78760000D02*
X161450000Y-114380000D01*
X158790000Y-114380000D02*
X161450000Y-114380000D01*
X161450000Y-76160000D02*
X161450000Y-77490000D01*
X160120000Y-76160000D02*
X161450000Y-76160000D01*
X158790000Y-78760000D02*
X158790000Y-114380000D01*
X158790000Y-78760000D02*
X161450000Y-78760000D01*
%TO.C,J5*%
X158695000Y-31020000D02*
X161355000Y-31020000D01*
X158695000Y-31020000D02*
X158695000Y-66640000D01*
X160025000Y-28420000D02*
X161355000Y-28420000D01*
X161355000Y-28420000D02*
X161355000Y-29750000D01*
X158695000Y-66640000D02*
X161355000Y-66640000D01*
X161355000Y-31020000D02*
X161355000Y-66640000D01*
D13*
%TO.C,J4*%
X35300000Y-59500000D02*
X35300000Y-50500000D01*
X35300000Y-50500000D02*
X49700000Y-50500000D01*
X49700000Y-59500000D02*
X47850000Y-59500000D01*
X49700000Y-50500000D02*
X49700000Y-53450000D01*
X44250000Y-59500000D02*
X35300000Y-59500000D01*
X49700000Y-56450000D02*
X49700000Y-59500000D01*
D17*
X50800000Y-55000000D02*
G75*
G03*
X50800000Y-55000000I-200000J0D01*
G01*
D14*
%TO.C,LowerBridge*%
X133570000Y-103830000D02*
X146330000Y-103830000D01*
X132300000Y-103830000D02*
X130970000Y-103830000D01*
X130970000Y-103830000D02*
X130970000Y-102500000D01*
X133570000Y-103830000D02*
X133570000Y-101170000D01*
X146330000Y-103830000D02*
X146330000Y-101170000D01*
X133570000Y-101170000D02*
X146330000Y-101170000D01*
%TO.C,UpperBridge*%
X133530000Y-88830000D02*
X146290000Y-88830000D01*
X132260000Y-88830000D02*
X130930000Y-88830000D01*
X130930000Y-88830000D02*
X130930000Y-87500000D01*
X133530000Y-88830000D02*
X133530000Y-86170000D01*
X146290000Y-88830000D02*
X146290000Y-86170000D01*
X133530000Y-86170000D02*
X146290000Y-86170000D01*
D18*
%TO.C,J1*%
X40381000Y-62458100D02*
G75*
G03*
X40381000Y-62458100I-381000J0D01*
G01*
D15*
X36579999Y-64236100D02*
X36579999Y-75843900D01*
X36579999Y-75843900D02*
X44326999Y-75843900D01*
X44326999Y-75843900D02*
X44326999Y-64236100D01*
X44326999Y-64236100D02*
X36579999Y-64236100D01*
%TO.C,F2*%
X37586400Y-32500000D02*
X36316400Y-32500000D01*
X36570400Y-31865000D02*
X36570400Y-33135000D01*
X36570400Y-32500000D02*
X37332400Y-31865000D01*
X36570400Y-32500000D02*
X37332400Y-31992000D01*
X36570400Y-32500000D02*
X37332400Y-32119000D01*
X36570400Y-32500000D02*
X37332400Y-32246000D01*
X36570400Y-32500000D02*
X37332400Y-32373000D01*
X36570400Y-32500000D02*
X37332400Y-33135000D01*
X36570400Y-32500000D02*
X37332400Y-33008000D01*
X36570400Y-32500000D02*
X37332400Y-32881000D01*
X36570400Y-32500000D02*
X37332400Y-32754000D01*
X36570400Y-32500000D02*
X37332400Y-32627000D01*
X37332400Y-31865000D02*
X37332400Y-33135000D01*
X41879000Y-36119500D02*
X74518000Y-36119500D01*
X74518000Y-36119500D02*
X74518000Y-28880500D01*
X74518000Y-28880500D02*
X41879000Y-28880500D01*
X41879000Y-28880500D02*
X41879000Y-36119500D01*
%TO.C,F1*%
X37586400Y-42500000D02*
X36316400Y-42500000D01*
X36570400Y-41865000D02*
X36570400Y-43135000D01*
X36570400Y-42500000D02*
X37332400Y-41865000D01*
X36570400Y-42500000D02*
X37332400Y-41992000D01*
X36570400Y-42500000D02*
X37332400Y-42119000D01*
X36570400Y-42500000D02*
X37332400Y-42246000D01*
X36570400Y-42500000D02*
X37332400Y-42373000D01*
X36570400Y-42500000D02*
X37332400Y-43135000D01*
X36570400Y-42500000D02*
X37332400Y-43008000D01*
X36570400Y-42500000D02*
X37332400Y-42881000D01*
X36570400Y-42500000D02*
X37332400Y-42754000D01*
X36570400Y-42500000D02*
X37332400Y-42627000D01*
X37332400Y-41865000D02*
X37332400Y-43135000D01*
X41879000Y-46119500D02*
X74518000Y-46119500D01*
X74518000Y-46119500D02*
X74518000Y-38880500D01*
X74518000Y-38880500D02*
X41879000Y-38880500D01*
X41879000Y-38880500D02*
X41879000Y-46119500D01*
D14*
%TO.C,D3*%
X134880000Y-31080000D02*
X134880000Y-31260000D01*
X134640000Y-31080000D02*
X134640000Y-31260000D01*
X134640000Y-28740000D02*
X134640000Y-28920000D01*
X134760000Y-28740000D02*
X134760000Y-28920000D01*
X134640000Y-28740000D02*
X138060000Y-28740000D01*
X138060000Y-28740000D02*
X138060000Y-28905000D01*
X134760000Y-31080000D02*
X134760000Y-31260000D01*
X134640000Y-31260000D02*
X138060000Y-31260000D01*
X138060000Y-31095000D02*
X138060000Y-31260000D01*
X134880000Y-28740000D02*
X134880000Y-28920000D01*
%TO.C,D2*%
X43800000Y-98740000D02*
X43800000Y-98920000D01*
X46980000Y-101095000D02*
X46980000Y-101260000D01*
X43560000Y-101260000D02*
X46980000Y-101260000D01*
X43680000Y-101080000D02*
X43680000Y-101260000D01*
X46980000Y-98740000D02*
X46980000Y-98905000D01*
X43560000Y-98740000D02*
X46980000Y-98740000D01*
X43680000Y-98740000D02*
X43680000Y-98920000D01*
X43560000Y-98740000D02*
X43560000Y-98920000D01*
X43560000Y-101080000D02*
X43560000Y-101260000D01*
X43800000Y-101080000D02*
X43800000Y-101260000D01*
%TO.C,D1*%
X37300000Y-98740000D02*
X37300000Y-98920000D01*
X40480000Y-101095000D02*
X40480000Y-101260000D01*
X37060000Y-101260000D02*
X40480000Y-101260000D01*
X37180000Y-101080000D02*
X37180000Y-101260000D01*
X40480000Y-98740000D02*
X40480000Y-98905000D01*
X37060000Y-98740000D02*
X40480000Y-98740000D01*
X37180000Y-98740000D02*
X37180000Y-98920000D01*
X37060000Y-98740000D02*
X37060000Y-98920000D01*
X37060000Y-101080000D02*
X37060000Y-101260000D01*
X37300000Y-101080000D02*
X37300000Y-101260000D01*
D15*
%TO.C,CR8*%
X97968000Y-83526800D02*
X97968000Y-86473200D01*
X103429000Y-83526800D02*
X97968000Y-83526800D01*
X103429000Y-86473200D02*
X103429000Y-83526800D01*
X97968000Y-86473200D02*
X103429000Y-86473200D01*
X93205500Y-84365000D02*
X93205500Y-85635000D01*
X92443500Y-85000000D02*
X93205500Y-85127000D01*
X92443500Y-85000000D02*
X93205500Y-85254000D01*
X92443500Y-85000000D02*
X93205500Y-85381000D01*
X92443500Y-85000000D02*
X93205500Y-85508000D01*
X92443500Y-85000000D02*
X93205500Y-85635000D01*
X92443500Y-85000000D02*
X93205500Y-84873000D01*
X92443500Y-85000000D02*
X93205500Y-84746000D01*
X92443500Y-85000000D02*
X93205500Y-84619000D01*
X92443500Y-85000000D02*
X93205500Y-84492000D01*
X92443500Y-85000000D02*
X93205500Y-84365000D01*
X92443500Y-84365000D02*
X92443500Y-85635000D01*
X93459500Y-85000000D02*
X92189500Y-85000000D01*
%TO.C,CR7*%
X93459500Y-110000000D02*
X92189500Y-110000000D01*
X92443500Y-109365000D02*
X92443500Y-110635000D01*
X92443500Y-110000000D02*
X93205500Y-109365000D01*
X92443500Y-110000000D02*
X93205500Y-109492000D01*
X92443500Y-110000000D02*
X93205500Y-109619000D01*
X92443500Y-110000000D02*
X93205500Y-109746000D01*
X92443500Y-110000000D02*
X93205500Y-109873000D01*
X92443500Y-110000000D02*
X93205500Y-110635000D01*
X92443500Y-110000000D02*
X93205500Y-110508000D01*
X92443500Y-110000000D02*
X93205500Y-110381000D01*
X92443500Y-110000000D02*
X93205500Y-110254000D01*
X92443500Y-110000000D02*
X93205500Y-110127000D01*
X93205500Y-109365000D02*
X93205500Y-110635000D01*
X97968000Y-111473200D02*
X103429000Y-111473200D01*
X103429000Y-111473200D02*
X103429000Y-108526800D01*
X103429000Y-108526800D02*
X97968000Y-108526800D01*
X97968000Y-108526800D02*
X97968000Y-111473200D01*
%TO.C,CR6*%
X97968000Y-76026800D02*
X97968000Y-78973200D01*
X103429000Y-76026800D02*
X97968000Y-76026800D01*
X103429000Y-78973200D02*
X103429000Y-76026800D01*
X97968000Y-78973200D02*
X103429000Y-78973200D01*
X93205500Y-76865000D02*
X93205500Y-78135000D01*
X92443500Y-77500000D02*
X93205500Y-77627000D01*
X92443500Y-77500000D02*
X93205500Y-77754000D01*
X92443500Y-77500000D02*
X93205500Y-77881000D01*
X92443500Y-77500000D02*
X93205500Y-78008000D01*
X92443500Y-77500000D02*
X93205500Y-78135000D01*
X92443500Y-77500000D02*
X93205500Y-77373000D01*
X92443500Y-77500000D02*
X93205500Y-77246000D01*
X92443500Y-77500000D02*
X93205500Y-77119000D01*
X92443500Y-77500000D02*
X93205500Y-76992000D01*
X92443500Y-77500000D02*
X93205500Y-76865000D01*
X92443500Y-76865000D02*
X92443500Y-78135000D01*
X93459500Y-77500000D02*
X92189500Y-77500000D01*
%TO.C,CR5*%
X93459500Y-52500000D02*
X92189500Y-52500000D01*
X92443500Y-51865000D02*
X92443500Y-53135000D01*
X92443500Y-52500000D02*
X93205500Y-51865000D01*
X92443500Y-52500000D02*
X93205500Y-51992000D01*
X92443500Y-52500000D02*
X93205500Y-52119000D01*
X92443500Y-52500000D02*
X93205500Y-52246000D01*
X92443500Y-52500000D02*
X93205500Y-52373000D01*
X92443500Y-52500000D02*
X93205500Y-53135000D01*
X92443500Y-52500000D02*
X93205500Y-53008000D01*
X92443500Y-52500000D02*
X93205500Y-52881000D01*
X92443500Y-52500000D02*
X93205500Y-52754000D01*
X92443500Y-52500000D02*
X93205500Y-52627000D01*
X93205500Y-51865000D02*
X93205500Y-53135000D01*
X97968000Y-53973200D02*
X103429000Y-53973200D01*
X103429000Y-53973200D02*
X103429000Y-51026800D01*
X103429000Y-51026800D02*
X97968000Y-51026800D01*
X97968000Y-51026800D02*
X97968000Y-53973200D01*
%TO.C,CR4*%
X75959500Y-110000000D02*
X74689500Y-110000000D01*
X74943500Y-109365000D02*
X74943500Y-110635000D01*
X74943500Y-110000000D02*
X75705500Y-109365000D01*
X74943500Y-110000000D02*
X75705500Y-109492000D01*
X74943500Y-110000000D02*
X75705500Y-109619000D01*
X74943500Y-110000000D02*
X75705500Y-109746000D01*
X74943500Y-110000000D02*
X75705500Y-109873000D01*
X74943500Y-110000000D02*
X75705500Y-110635000D01*
X74943500Y-110000000D02*
X75705500Y-110508000D01*
X74943500Y-110000000D02*
X75705500Y-110381000D01*
X74943500Y-110000000D02*
X75705500Y-110254000D01*
X74943500Y-110000000D02*
X75705500Y-110127000D01*
X75705500Y-109365000D02*
X75705500Y-110635000D01*
X80468000Y-111473200D02*
X85929000Y-111473200D01*
X85929000Y-111473200D02*
X85929000Y-108526800D01*
X85929000Y-108526800D02*
X80468000Y-108526800D01*
X80468000Y-108526800D02*
X80468000Y-111473200D01*
%TO.C,CR3*%
X75959500Y-85000000D02*
X74689500Y-85000000D01*
X74943500Y-84365000D02*
X74943500Y-85635000D01*
X74943500Y-85000000D02*
X75705500Y-84365000D01*
X74943500Y-85000000D02*
X75705500Y-84492000D01*
X74943500Y-85000000D02*
X75705500Y-84619000D01*
X74943500Y-85000000D02*
X75705500Y-84746000D01*
X74943500Y-85000000D02*
X75705500Y-84873000D01*
X74943500Y-85000000D02*
X75705500Y-85635000D01*
X74943500Y-85000000D02*
X75705500Y-85508000D01*
X74943500Y-85000000D02*
X75705500Y-85381000D01*
X74943500Y-85000000D02*
X75705500Y-85254000D01*
X74943500Y-85000000D02*
X75705500Y-85127000D01*
X75705500Y-84365000D02*
X75705500Y-85635000D01*
X80468000Y-86473200D02*
X85929000Y-86473200D01*
X85929000Y-86473200D02*
X85929000Y-83526800D01*
X85929000Y-83526800D02*
X80468000Y-83526800D01*
X80468000Y-83526800D02*
X80468000Y-86473200D01*
%TO.C,CR2*%
X80468000Y-76026800D02*
X80468000Y-78973200D01*
X85929000Y-76026800D02*
X80468000Y-76026800D01*
X85929000Y-78973200D02*
X85929000Y-76026800D01*
X80468000Y-78973200D02*
X85929000Y-78973200D01*
X75705500Y-76865000D02*
X75705500Y-78135000D01*
X74943500Y-77500000D02*
X75705500Y-77627000D01*
X74943500Y-77500000D02*
X75705500Y-77754000D01*
X74943500Y-77500000D02*
X75705500Y-77881000D01*
X74943500Y-77500000D02*
X75705500Y-78008000D01*
X74943500Y-77500000D02*
X75705500Y-78135000D01*
X74943500Y-77500000D02*
X75705500Y-77373000D01*
X74943500Y-77500000D02*
X75705500Y-77246000D01*
X74943500Y-77500000D02*
X75705500Y-77119000D01*
X74943500Y-77500000D02*
X75705500Y-76992000D01*
X74943500Y-77500000D02*
X75705500Y-76865000D01*
X74943500Y-76865000D02*
X74943500Y-78135000D01*
X75959500Y-77500000D02*
X74689500Y-77500000D01*
%TO.C,CR1*%
X80468000Y-51026800D02*
X80468000Y-53973200D01*
X85929000Y-51026800D02*
X80468000Y-51026800D01*
X85929000Y-53973200D02*
X85929000Y-51026800D01*
X80468000Y-53973200D02*
X85929000Y-53973200D01*
X75705500Y-51865000D02*
X75705500Y-53135000D01*
X74943500Y-52500000D02*
X75705500Y-52627000D01*
X74943500Y-52500000D02*
X75705500Y-52754000D01*
X74943500Y-52500000D02*
X75705500Y-52881000D01*
X74943500Y-52500000D02*
X75705500Y-53008000D01*
X74943500Y-52500000D02*
X75705500Y-53135000D01*
X74943500Y-52500000D02*
X75705500Y-52373000D01*
X74943500Y-52500000D02*
X75705500Y-52246000D01*
X74943500Y-52500000D02*
X75705500Y-52119000D01*
X74943500Y-52500000D02*
X75705500Y-51992000D01*
X74943500Y-52500000D02*
X75705500Y-51865000D01*
X74943500Y-51865000D02*
X74943500Y-53135000D01*
X75959500Y-52500000D02*
X74689500Y-52500000D01*
D14*
%TO.C,C4*%
X43720000Y-78130000D02*
X43720000Y-86870000D01*
X36280000Y-86870000D02*
X43720000Y-86870000D01*
X36280000Y-78130000D02*
X36280000Y-86870000D01*
X36280000Y-78130000D02*
X43720000Y-78130000D01*
%TO.C,C3*%
X135970000Y-96380000D02*
X131130000Y-96380000D01*
X131130000Y-98620000D02*
X131130000Y-96380000D01*
X135970000Y-98620000D02*
X131130000Y-98620000D01*
X135970000Y-98620000D02*
X135970000Y-96380000D01*
%TO.C,C2*%
X135970000Y-91380000D02*
X131130000Y-91380000D01*
X131130000Y-93620000D02*
X131130000Y-91380000D01*
X135970000Y-93620000D02*
X131130000Y-93620000D01*
X135970000Y-93620000D02*
X135970000Y-91380000D01*
%TO.C,C1*%
X53720000Y-78130000D02*
X53720000Y-86870000D01*
X46280000Y-86870000D02*
X53720000Y-86870000D01*
X46280000Y-78130000D02*
X46280000Y-86870000D01*
X46280000Y-78130000D02*
X53720000Y-78130000D01*
%TD*%
M02*
