M48
; DRILL file {KiCad (6.0.7)} date Tue Apr  2 23:48:27 2024
; FORMAT={-:-/ absolute / inch / decimal}
; #@! TF.CreationDate,2024-04-02T23:48:27-07:00
; #@! TF.GenerationSoftware,Kicad,Pcbnew,(6.0.7)
; #@! TF.FileFunction,Plated,1,2,PTH
FMAT,2
INCH
; #@! TA.AperFunction,Plated,PTH,ViaDrill
T1C0.0157
; #@! TA.AperFunction,Plated,PTH,ComponentDrill
T2C0.0276
; #@! TA.AperFunction,Plated,PTH,ComponentDrill
T3C0.0291
; #@! TA.AperFunction,Plated,PTH,ComponentDrill
T4C0.0315
; #@! TA.AperFunction,Plated,PTH,ComponentDrill
T5C0.0354
; #@! TA.AperFunction,Plated,PTH,ComponentDrill
T6C0.0394
; #@! TA.AperFunction,Plated,PTH,ComponentDrill
T7C0.0400
; #@! TA.AperFunction,Plated,PTH,ComponentDrill
T8C0.0420
; #@! TA.AperFunction,Plated,PTH,ComponentDrill
T9C0.0440
; #@! TA.AperFunction,Plated,PTH,ComponentDrill
T10C0.0472
; #@! TA.AperFunction,Plated,PTH,ComponentDrill
T11C0.0500
; #@! TA.AperFunction,Plated,PTH,ComponentDrill
T12C0.0510
; #@! TA.AperFunction,Plated,PTH,ComponentDrill
T13C0.0528
%
G90
G05
T1
X3.8386Y-4.1339
X4.8228Y-3.8386
X5.0197Y-3.248
X6.0039Y-2.1654
X6.7913Y-1.8701
X6.7913Y-2.4606
X6.8898Y-2.4606
T2
X5.2087Y-3.6417
X5.2087Y-3.8386
X5.3071Y-3.6417
X5.3071Y-3.8386
T3
X5.3555Y-1.8185
X5.3555Y-1.9185
X5.3555Y-2.0185
X5.3555Y-2.1185
X5.3555Y-2.7043
X5.3555Y-2.8043
X5.3555Y-2.9043
X5.3555Y-3.0043
X5.6681Y-1.8185
X5.6681Y-1.9185
X5.6681Y-2.0185
X5.6681Y-2.1185
X5.6681Y-2.7043
X5.6681Y-2.8043
X5.6681Y-2.9043
X5.6681Y-3.0043
T4
X1.4732Y-3.5433
X1.4732Y-3.7402
X1.4764Y-3.248
X1.6732Y-3.248
X1.8701Y-3.248
X1.8732Y-3.5433
X1.8732Y-3.7402
X2.0669Y-3.248
X2.3587Y-2.2638
X2.3591Y-2.0669
X2.3591Y-2.6575
X2.3591Y-3.6417
X2.3591Y-4.0354
X2.3591Y-4.2323
X2.3598Y-2.8543
X2.3622Y-3.4449
X2.7587Y-2.2638
X2.7591Y-2.0669
X2.7591Y-2.6575
X2.7591Y-3.6417
X2.7591Y-4.0354
X2.7591Y-4.2323
X2.7598Y-2.8543
X2.7622Y-3.4449
X4.3276Y-2.0669
X4.3276Y-2.2638
X4.3276Y-2.6575
X4.3276Y-2.8543
X4.3276Y-3.4449
X4.3276Y-3.6417
X4.3276Y-4.0354
X4.3276Y-4.2323
X4.7276Y-2.0669
X4.7276Y-2.2638
X4.7276Y-2.6575
X4.7276Y-2.8543
X4.7276Y-3.4449
X4.7276Y-3.6417
X4.7276Y-4.0354
X4.7276Y-4.2323
X5.0165Y-1.5748
X5.0165Y-2.4606
X5.1181Y-1.7685
X5.1181Y-2.1685
X5.1181Y-2.7528
X5.1181Y-3.1528
X5.4165Y-1.5748
X5.4165Y-2.4606
X5.6071Y-1.1811
X5.6071Y-1.5748
X5.6071Y-2.4606
X5.9055Y-1.7685
X5.9055Y-2.1685
X5.9055Y-2.7528
X5.9055Y-3.1528
X6.0071Y-1.1811
X6.0071Y-1.5748
X6.0071Y-2.4606
T5
X1.4764Y-3.937
X1.5764Y-3.937
X1.7323Y-3.937
X1.8323Y-3.937
X3.3875Y-1.168
X3.545Y-1.168
X3.7025Y-1.168
X4.0765Y-1.168
X4.234Y-1.168
X4.3914Y-1.168
X5.3181Y-1.1811
X5.4181Y-1.1811
T6
X1.4764Y-4.2323
X1.4764Y-4.4291
X1.6732Y-4.4291
X1.8701Y-4.4291
X2.5591Y-3.1496
X4.5276Y-3.1496
X4.9213Y-1.1795
X5.0213Y-1.1795
X5.2071Y-3.4449
X5.2087Y-4.0354
X5.3071Y-3.4449
X5.3087Y-4.0354
X5.4071Y-3.4449
X5.4087Y-4.0354
X5.5071Y-3.4449
X5.5087Y-4.0354
X5.6071Y-3.4449
X5.6087Y-4.0354
X5.7071Y-3.4449
X5.7087Y-4.0354
X6.3002Y-1.1713
X6.3002Y-1.2713
X6.3002Y-1.3713
X6.3002Y-1.4713
X6.3002Y-1.5713
X6.3002Y-1.6713
X6.3002Y-1.7713
X6.3002Y-1.8713
X6.3002Y-1.9713
X6.3002Y-2.0713
X6.3002Y-2.1713
X6.3002Y-2.2713
X6.3002Y-2.3713
X6.3002Y-2.4713
X6.3002Y-2.5713
X6.3039Y-3.0508
X6.3039Y-3.1508
X6.3039Y-3.2508
X6.3039Y-3.3508
X6.3039Y-3.4508
X6.3039Y-3.5508
X6.3039Y-3.6508
X6.3039Y-3.7508
X6.3039Y-3.8508
X6.3039Y-3.9508
X6.3039Y-4.0508
X6.3039Y-4.1508
X6.3039Y-4.2508
X6.3039Y-4.3508
X6.3039Y-4.4508
X7.4803Y-1.1701
X7.4803Y-1.2701
X7.4803Y-1.3701
X7.4803Y-1.4701
X7.4803Y-1.5701
X7.4803Y-1.6701
X7.4803Y-1.7701
X7.4803Y-1.8701
X7.4803Y-1.9701
X7.4803Y-2.0701
X7.4803Y-2.1701
X7.4803Y-2.2701
X7.4803Y-2.3701
X7.4803Y-2.4701
X7.4803Y-2.5701
X7.485Y-3.0496
X7.485Y-3.1496
X7.485Y-3.2496
X7.485Y-3.3496
X7.485Y-3.4496
X7.485Y-3.5496
X7.485Y-3.6496
X7.485Y-3.7496
X7.485Y-3.8496
X7.485Y-3.9496
X7.485Y-4.0496
X7.485Y-4.1496
X7.485Y-4.2496
X7.485Y-4.3496
X7.485Y-4.4496
T7
X6.5898Y-1.1701
X6.5898Y-1.2701
X6.5898Y-1.3701
X6.5898Y-1.4701
X6.5898Y-1.5701
X6.5898Y-1.6701
X6.5898Y-1.7701
X6.5898Y-1.8701
X6.5898Y-1.9701
X6.5898Y-2.0701
X6.5898Y-2.1701
X6.5898Y-2.2701
X6.5898Y-2.3701
X6.5898Y-2.4701
X6.5898Y-2.5701
X6.5945Y-3.0496
X6.5945Y-3.1496
X6.5945Y-3.2496
X6.5945Y-3.3496
X6.5945Y-3.4496
X6.5945Y-3.5496
X6.5945Y-3.6496
X6.5945Y-3.7496
X6.5945Y-3.8496
X6.5945Y-3.9496
X6.5945Y-4.0496
X6.5945Y-4.1496
X6.5945Y-4.2496
X6.5945Y-4.3496
X6.5945Y-4.4496
X7.1898Y-1.1701
X7.1898Y-1.2701
X7.1898Y-1.3701
X7.1898Y-1.4701
X7.1898Y-1.5701
X7.1898Y-1.6701
X7.1898Y-1.7701
X7.1898Y-1.8701
X7.1898Y-1.9701
X7.1898Y-2.0701
X7.1898Y-2.1701
X7.1898Y-2.2701
X7.1898Y-2.3701
X7.1898Y-2.4701
X7.1898Y-2.5701
X7.1945Y-3.0496
X7.1945Y-3.1496
X7.1945Y-3.2496
X7.1945Y-3.3496
X7.1945Y-3.4496
X7.1945Y-3.5496
X7.1945Y-3.6496
X7.1945Y-3.7496
X7.1945Y-3.8496
X7.1945Y-3.9496
X7.1945Y-4.0496
X7.1945Y-4.1496
X7.1945Y-4.2496
X7.1945Y-4.3496
X7.1945Y-4.4496
T8
X1.5258Y-1.2795
X1.5258Y-1.6732
X3.0568Y-1.2795
X3.0568Y-1.6732
T9
X3.0375Y-2.0669
X3.0375Y-3.0512
X3.0375Y-3.3465
X3.0375Y-4.3307
X3.5135Y-2.0669
X3.5135Y-3.0512
X3.5135Y-3.3465
X3.5135Y-4.3307
X3.7265Y-2.0669
X3.7265Y-3.0512
X3.7265Y-3.3465
X3.7265Y-4.3307
X4.2025Y-2.0669
X4.2025Y-3.0512
X4.2025Y-3.3465
X4.2025Y-4.3307
T10
X3.3088Y-1.0991
X3.3088Y-1.3353
X3.7812Y-1.0991
X3.7812Y-1.3353
X3.9977Y-1.0991
X3.9977Y-1.3353
X4.4702Y-1.0991
X4.4702Y-1.3353
T11
X3.1398Y-4.0354
X3.1449Y-2.7559
X3.2437Y-4.0354
X3.2488Y-2.7559
X3.3476Y-4.0354
X3.3528Y-2.7559
X3.8315Y-4.0354
X3.8346Y-2.7559
X3.9354Y-4.0354
X3.9386Y-2.7559
X4.0394Y-4.0354
X4.0425Y-2.7559
T12
X1.5748Y-2.6575
X1.5748Y-2.8575
T13
X3.1449Y-3.6417
X3.1496Y-2.3622
X3.2449Y-3.6417
X3.2496Y-2.3622
X3.3449Y-3.6417
X3.3496Y-2.3622
X3.8354Y-3.6417
X3.8386Y-2.3622
X3.9354Y-3.6417
X3.9386Y-2.3622
X4.0354Y-3.6417
X4.0386Y-2.3622
T6
G00X1.6929Y-2.1772
M15
G01X1.6929Y-2.1535
M16
G05
G00X1.8228Y-2.3504
M15
G01X1.7992Y-2.3504
M16
G05
G00X1.9291Y-2.1772
M15
G01X1.9291Y-2.1535
M16
G05
T0
M30
